<?xml version="1.0" encoding="utf-8"?>
<!-- Generator: Adobe Illustrator 22.0.2, SVG Export Plug-In . SVG Version: 6.00 Build 0)  -->
<svg version="1.1" id="Capa_1" xmlns="http://www.w3.org/2000/svg" xmlns:xlink="http://www.w3.org/1999/xlink" x="0px" y="0px"
	 viewBox="0 0 730 1217.451" width="730" height="1217" style="enable-background:new 0 0 730 1217.451;" xml:space="preserve">
<style type="text/css">
	.st0{fill:#868B86;}
	.st1{fill:#F6F7F6;}
	.st2{fill:#CAE5D4;}
	.st3{fill:#858984;}
	.st4{fill:#574B59;}
	.st5{fill:#8FBB94;}
	.st6{fill:#CADEA6;}
	.st7{fill:#AAE3BB;}
	.st8{fill:#D4D3A1;}
	.st9{fill:#F6DFA0;}
	.st10{fill:#FAF5B3;}
	.st11{fill:#E79E25;}
	.st12{fill:#EEC142;}
	.st13{fill:#EFC2A6;}
	.st14{fill:#E17857;}
	.st15{fill:#DD4E20;}
	.st16{fill-rule:evenodd;clip-rule:evenodd;fill:#69AF2D;}
	.st17{fill:none;stroke:#868B86;stroke-miterlimit:10;}
	.st18{fill:#FFFFFF;stroke:#F6F7F6;stroke-width:7;stroke-linecap:round;stroke-linejoin:round;stroke-miterlimit:10;}
	.st19{fill:#2AB20B;}
	.st20{fill:#FF4D16;}
	.st21{fill:#59896A;}
	.st22{fill:#B6B9B6;}
	.st23{fill:#5B4A59;}
	.st24{fill:#FFFFFF;}
	.st25{fill:#7ABD94;}
	.st26{fill:#C3E0A6;}
	.st27{fill:none;stroke:#5B4A59;stroke-width:1.8228;stroke-miterlimit:10;}
	.st28{fill:#FFECCC;}
	.st29{fill:#FFA000;}
	.st30{fill:#7C4833;}
	.st31{fill:none;}
	.st32{font-family:'Rubik-Medium';}
	.st33{font-size:31px;}
	.st34{font-family:'WorkSans-SemiBold';}
	.st35{font-size:23px;}
	.st36{font-size:18px;}
	.st37{fill:#7ABD94;stroke:#7ABD94;stroke-miterlimit:10;}
	.st38{fill:#9D929B;}
	.st39{fill:#7C6E7A;}
	.st40{fill:#737573;}
	.st41{fill:#8EE5BB;}
	.st42{fill:none;stroke:#FFA000;stroke-width:4;stroke-miterlimit:10;stroke-dasharray:5;}
</style>
<path class="st0" d="M116.953,333.137c-1.106,0.542-2.509,1.315-4.269,2.381c-5.162,3.123-11.387,7.521-11.042,8.091
	c0.345,0.57,7.129-2.904,12.291-6.028c1.761-1.066,3.096-1.948,4.089-2.677C117.502,334.417,117.136,333.803,116.953,333.137z"/>
<rect x="-0.26" class="st1" width="730" height="1217"/>
<polygon class="st2" points="729.74,144.337 364.027,197 -0.26,144.337 -0.26,0 729.74,0 "/>
<rect x="0.13" y="45.532" class="st31" width="727.61" height="82.792"/>
<text transform="matrix(1 0 0 1 111.2887 71.8811)"><tspan x="0" y="0" class="st32 st33">Barómetro medioambiental de los </tspan><tspan x="-101.928" y="37.2" class="st32 st33">PRESUPUESTOS GENERALES DEL ESTADO 2019</tspan></text>
<g>
	<path class="st16" d="M307.152,139.763c0.53,0,1.059,0,1.589,0c0.824,0.19,1.799,0.609,2.236,1.53
		c0.149,0.316,0.221,0.811,0.353,1.237c0.466,1.505,0.044,2.297-1.648,2.294c-0.74-0.515-0.71-1.799-1.587-2.176
		c-2.665,0.959-4.68,3.052-6.355,5.178c-0.592,0.748-1.783,2.088-1.824,3.235c-0.053,1.466,0.758,1.571,2,1.942
		c1.551,0.461,3.787,0.857,5.589,0.353c0.976-0.273,2.088-0.769,2.06-1.883c-0.809-0.182-1.793,0.195-2.824,0.353
		c-0.953,0.145-2.205,0.605-2.943,0.413c-0.446-0.117-0.946-1.008-1-1.53c-0.081-0.776,0.365-1.635,0.647-2.117
		c1.8-0.5,3.833-0.648,6.001-1.001c1.147-0.186,2.555-0.727,3.766-0.059c0.322,0.925,1.025,1.734,1,2.825
		c-0.016,0.691-0.798,1.602-1.059,2.47c-0.367,1.221-0.748,2.691-0.766,4.178c-0.011,0.968,0.253,1.732-0.235,2.706
		c-0.417,0.151-0.767,0.369-1.176,0.529c-0.157,0-0.314,0-0.471,0c-0.381-0.364-1.097-0.392-1.471-0.765
		c-0.256-1.101,0.176-2.841-0.117-3.766c-1.339,0.451-3.179,0.787-5.12,0.765c-2.111-0.024-5.083-1.058-5.706-2.529
		c-0.228-0.539-0.196-1.077-0.353-1.648c0-0.98,0-1.96,0-2.941c0.22-0.294,0.163-0.86,0.294-1.235
		c0.305-0.87,1.147-1.515,1.765-2.296c0.229-0.289,0.375-0.737,0.589-1c0.548-0.674,1.404-1.051,1.882-1.765
		C304.066,142.127,304.997,140.333,307.152,139.763z"/>
	<path class="st16" d="M323.038,150.472c0.364,1.013,1.546,1.341,2.529,2.057c0.619,0.451,1.508,1.234,1.119,2.589
		c-0.083,0.288-1.243,1.625-1.766,1.707c-0.419,0.066-1.011-0.115-1.295-0.294c-0.652-0.413-1.274-1.288-1.941-1.942
		c-0.99-0.97-2.036-1.56-3.06-2.411c-1.371,1.046,0.473,4.186-0.94,5.235c-1.518,0.211-2.425-0.761-2.589-1.942
		c-0.182-1.287,0.581-2.993,0.353-4.119c-0.106-0.518-0.699-0.778-0.766-1.471c-0.078-0.825,0.18-1.52,0.531-2
		c0.268-0.065,0.528-0.139,0.824-0.177c0.364-0.59,0.566-1.369,0.823-2.176c0.079-0.248,0.243-0.567,0.235-0.706
		c-0.027-0.445-0.581-0.78-0.706-1.058c-0.879-1.957,0.77-3.544,2.412-3.766c0.866-0.117,1.685,0.244,2.353,0.413
		c0.431,0.106,0.923,0.122,1.177,0.235c0.145,0.064,0.634,0.426,0.824,0.587c0.341,0.294,0.591,0.806,0.882,1.296
		c0.462,0.773,1.274,2.221,1.059,3.765c-0.052,0.363-0.327,0.733-0.412,1.117c-0.054,0.249,0.007,0.494-0.058,0.707
		C324.336,149.051,323.546,149.67,323.038,150.472z M321.92,144.94c-0.018-0.793-0.772-1.182-1.647-1.353
		c-0.393,0.991-0.406,2.543-0.47,3.766C320.68,147.1,321.948,146.017,321.92,144.94z"/>
	<path class="st16" d="M381.403,148.177c0.311,0.518,1.062,0.398,1.588,0.351c1.09-0.096,2.18-0.283,3.059-0.704
		c0.607-0.292,0.958-0.809,1.589-0.295c0.525,0.427,1.193,2.784,0.472,3.53c-0.793,0.552-2.459,0.677-4.001,0.883
		c-1.267,0.168-2.557,0.185-3.589,0.411c-0.431,0.095-1.029,0.423-1.06,0.706c-0.073,0.69,1.207,1.231,1.824,1.236
		c0.331,0.002,0.754-0.069,1.117-0.177c0.955-0.281,1.919-1.153,2.824-0.94c0.696,0.164,1.256,2.247,0.766,3.471
		c-0.306,0.76-2.18,1.615-3.413,1.647c-2.121,0.056-4.183-0.612-5.119-1.647c-2.093-2.314-0.75-6.143,0.353-9.002
		c-0.974,0.302-1.618,1.295-2.588,1.824c-0.224,0.121-0.506,0.12-0.765,0.235c-0.218,0.096-0.38,0.319-0.588,0.413
		c-0.72,0.319-1.606,0.455-2.414,0.705c-0.729,1.82-0.66,4.437-0.94,6.707c-1.211,1.065-2.938,0.266-3.118-1.234
		c-0.161-1.349,0.25-3.183,0.294-4.355c-0.591-0.508-1.742-1.023-1.824-2.118c-0.041-0.547,0.226-2.081,0.647-2.354
		c0.332-0.215,0.783-0.08,1.118-0.236c0.815-0.376,0.552-1.55,0.588-2.412c-0.916-0.739-1.943,0.314-2.765,0.53
		c-0.861,0.225-1.49-0.129-2.119-0.53c-0.476,0.242-0.183,0.829-0.119,1.295c0.311,2.245-0.418,5-0.352,7.119
		c0.008,0.244,0.145,0.493,0.176,0.766c0.16,1.356,0.068,3.432-0.707,3.883c-0.382,0.222-1.529,0.241-2,0.059
		c-0.805-0.313-1.037-1.457-1.176-2.59c-0.211-1.722-1.929-2.935-2.413-4.412c-0.254-0.237-0.382-0.599-0.764-0.707
		c-0.436,0.198-0.41,0.851-0.53,1.355c-0.112,0.472-0.339,0.964-0.411,1.412c-0.244,1.519,0.218,3.149-0.766,4.001
		c-1.206-0.059-2.58,0.097-2.765-1.353c-0.218-1.707,0.319-3.531,0.648-5.12c0.3-1.464,0.709-3.126,0.705-5
		c-0.001-0.621-0.284-1.134-0.295-1.648c-0.03-1.456,0.319-3.047,1.531-3.235c1.021-0.16,1.599,0.486,2.175,0.646
		c0.533,1.197,0.064,2.933,0.471,4.06c0.266,0.733,0.888,1.409,1.353,2.059c0.496,0.692,1.12,1.297,1.589,1.824
		c0.619-0.735,0.355-3.008,0.588-4.766c0.037-0.276,0.155-0.538,0.176-0.765c0.11-1.107-0.273-2.58,0.883-2.706
		c1.236-0.134,1.662,0.968,2.001,1.882c0.485-0.122,0.528-0.688,0.882-0.941c0.272-0.072,0.518-0.021,0.824-0.177
		c0.203-0.103,0.287-0.327,0.471-0.411c0.342-0.157,1.097-0.269,1.706-0.353c1.947-0.269,4.149-0.22,6.295,0.058
		c1.221,0.159,2.498,0.293,3.178,0.706c1.041,0.633,1.94,3.246,1.412,5.119c0.474,0.038,0.641-0.523,0.823-0.822
		c0.471-0.775,0.68-1.478,1.119-2.413c0.187-0.4,0.381-0.923,0.648-1.117c0.351-0.257,1.291-0.26,2.176-0.413
		c0.719-0.124,1.326-0.408,2-0.588c1.645-0.435,2.943-0.723,4.177-1c0.631-0.141,1.069,0.149,1.471,0.471
		c0.167,0.916,1.243,2.304,0.588,3.412c-0.393,0.666-3.335,0.912-4.295,1.119c-0.717,0.155-1.505,0.298-2.235,0.47
		C382.892,146.4,381.835,146.606,381.403,148.177z M371.107,144.294c-0.091,0.793,0.057,1.757,0.47,2.352
		c1.286-0.054,2.585-0.586,3.001-1.706C373.83,144.365,372.241,144.102,371.107,144.294z"/>
	<path class="st16" d="M337.983,140.823c0.848,0.774,1.828,2.175,1.471,3.588c-1.496,0.552-3.643,0.776-5.354,1.178
		c-0.642,0.15-1.329,0.278-1.706,0.471c-0.739,0.375-1.089,1.588,0.176,1.646c1.415,0.066,2.659-0.73,4.118-0.647
		c0.65,0.525,0.798,1.347,1.059,2.353c0.076,0.294,0.25,0.678,0.177,0.942c-0.159,0.564-1.865,0.735-2.707,0.764
		c-1.01,0.035-2.295,0.271-2.941,0.354c-0.852,0.107-1.942,0.037-1.765,1.059c0.09,0.528,1.425,0.918,2.059,0.943
		c1.018,0.037,1.373-0.662,2.058-0.589c1.208,0.125,1.767,3.082,0.824,4.119c-0.393,0.433-1.395,0.699-1.942,0.706
		c-0.437,0.007-1.215-0.225-1.824-0.414c-1.423-0.437-2.304-0.73-3.176-1.646c-0.181-0.191-0.573-0.472-0.707-0.706
		c-0.468-0.823-0.629-1.895-0.646-2.706c-0.042-1.918,0.779-3.28,1.411-5.119c-0.527-0.739-1.435-2.061-0.941-3.471
		c0.168-0.48,0.728-0.692,1.059-1.059c1.121-0.071,1.518-0.469,2.706-0.588c1.601-0.162,3.139-0.945,4.884-1.119
		C336.833,140.825,337.392,140.852,337.983,140.823z"/>
	<path class="st16" d="M400.171,147.941c0.575-0.366,0.666-1.172,1.119-1.705c0.13-0.156,0.381-0.253,0.529-0.413
		c0.156-0.169,0.215-0.406,0.353-0.53c0.394-0.351,1.289-0.774,1.824-1.059c1.777-0.942,4.068-1.821,6.826-1.764
		c0.848,0.387,1.271,1.2,1.824,1.882c0.692,1.778,0.089,4.053-1.061,4.883c-1.199,0.198-2.178-0.225-2.764-0.823
		c-0.291-1.023,0.427-2.091-0.059-2.824c-2.123,0.159-3.396,1.429-4.413,2.824c-0.351,0.481-1.292,1.474-0.999,2.412
		c0.095,0.307,0.942,0.767,1.352,1.059c1.193,0.848,3.513,2.337,5.649,1.295c0.413-0.203,0.866-0.855,1.353-0.825
		c0.457,0.03,0.4,0.436,0.824,0.589c0.632-0.477,0.291-1.042,0.352-1.589c0.099-0.9,0.514-1.835,0.823-2.706
		c0.298-0.841,0.962-1.715,1.059-2.412c0.035-0.236-0.104-0.622-0.057-1.001c0.068-0.557,0.668-1.636,1.176-1.884
		c0.646-0.313,2.001-0.436,3.061-0.589c1.024-0.147,2.09-0.378,3.059-0.529c1.082-0.168,2.131-0.155,3.059-0.294
		c1.013-0.151,1.857-0.441,2.707-0.647c0.367-0.088,0.951-0.084,1.058-0.059c0.611,0.151,1.507,1.287,1.649,2.06
		c0.136,0.744-0.056,1.515-0.061,2.177c-0.623,0.293-1.379-0.047-2.116-0.059c-1.401-0.02-3.16,0.161-4.827,0.294
		c-0.776,0.062-1.617,0.139-2.412,0.236c-0.808,0.1-1.718,0.134-2.235,0.353c-0.649,0.274-1.022,1.082-1.236,1.706
		c0.605,0.439,1.625,0.413,2.472,0.413c0.47,0,1.039-0.027,1.471-0.117c0.348-0.076,0.606-0.302,0.941-0.296
		c1.038,0.022,2.149,1.879,1.825,3.353c-0.218,0.985-1.219,1.206-2.001,1.706c0.08,0.49,0.54,0.597,0.764,0.944
		c0.019,1.077-0.03,2.086-0.47,2.705c-2.125,1.077-5.924,1.407-7.766,0.06c-0.67-0.49-1.212-1.032-1.765-1.648
		c-0.923,1.299-1.168,2.893-3.295,2.944c-1.084,0.023-2.221-0.268-3.118-0.59c-1.226-0.439-2.118-0.968-3.179-1.706
		c-1.477-1.03-2.454-1.962-3.412-3.355c-0.911,1.376,0.558,4.708-1.057,5.533c-2.183,0.181-2.57-1.094-2.472-3.413
		c0.028-0.644,0.178-1.26-0.353-1.472c-0.915-0.363-3.257,0.284-3.824,0.589c-0.888,0.477-1.205,1.933-1.766,2.942
		c-0.255,0.46-0.596,1.087-1.057,1.119c-0.266,0.018-1.46-0.598-1.648-0.824c-0.159-0.192-0.341-0.835-0.352-1.236
		c-0.05-1.794,1.862-3.358,2.176-5c0.076-0.399-0.011-0.689,0.058-0.884c0.136-0.379,0.696-0.494,1.001-0.882
		c0.274-0.349,0.501-1.018,0.765-1.53c0.992-1.921,1.963-3.989,3.472-5.413c0.68-0.643,1.234-1.314,2.47-0.765
		c0.334,0.343,0.672,0.783,1,1.236c0.514,0.709,0.702,1.176,0.883,2.295C399.526,145.815,399.939,146.879,400.171,147.941z
		 M396.17,145.529c-0.493,0.958-1.067,1.835-1.353,2.999c0.31,0.374,0.939-0.001,1.411,0c0.492-0.526,0.501-2.339,0.06-2.94
		C396.274,145.542,396.239,145.52,396.17,145.529z M420.94,153.001c-0.392-0.082-0.839-0.216-1.295-0.235
		c-0.727-0.031-1.529,0.145-2.177,0.117c-0.511-0.023-1.074-0.335-1.235,0.294c0.729,0.959,2.248,0.687,3.707,0.47
		c0.658-0.099,1.328-0.011,1.706-0.353C421.681,152.854,421.175,153.049,420.94,153.001z"/>
	<path class="st16" d="M351.808,144.53c-0.939,0.035-1.862,0.329-2.764,0.47c-1.832,0.286-3.938-0.042-4.825,1.236
		c-0.002,0.565-0.429,0.708-0.53,1.176c0.431,0.427,1.143,0.104,1.707,0c0.585-0.108,1.192-0.205,1.705-0.413
		c0.654-0.261,1.058-0.724,1.767-0.235c0.439,0.304,1.044,1.476,1.117,2c0.027,0.187,0.039,1.192-0.176,1.47
		c-0.214,0.278-1.744,0.735-2.119,0.825c-1.755,0.424-3.704,0.373-5.413,0.706c-1.698,1.458,1.896,1.987,3.353,1.471
		c0.428-0.152,0.768-0.694,1.236-0.647c0.569,0.057,1.288,1.534,1.354,2.177c0.097,0.954-0.235,1.754-0.648,2.177
		c-1.437,0.394-3.043,0.836-4.472,0.529c-0.329-0.071-0.767-0.31-1.176-0.411c-0.493-0.124-0.984-0.17-1.235-0.354
		c-0.535-0.385-0.576-1.087-0.942-1.589c-0.223-0.303-0.568-0.458-0.706-0.764c-0.317-0.704-0.316-1.787-0.177-2.707
		c0.17-1.131,0.453-2.407,0.705-3.529c0.305-1.351,1.298-2.438,1.471-3.649c0.075-0.511-0.067-0.934,0.059-1.236
		c0.41-0.975,2.73-1.114,4.177-1.354c1.222-0.201,2.322-0.66,3.648-0.764c1.677-0.131,2.026,0.358,2.647,1.354
		C352.041,143.216,352.262,143.536,351.808,144.53z"/>
</g>
<line class="st17" x1="365.74" y1="211" x2="365.74" y2="1170.5"/>
<g>
	<polygon points="313.74,229.751 297.734,229.751 88.225,229.751 94.891,214.186 88.225,197.376 297.734,197.376 313.74,197.376 
		308.026,214.185 	"/>
	<g>
		<path class="st18" d="M117.042,196.996c0,0-0.228-0.762-0.602-2.02c-1.712-5.758-6.496-21.969-6.605-23.724
			c-0.128-2.137,2.42-16.56,2.42-16.56s-8.264-8.081-14.968,8.11c-6.716,16.195-2.446,19.172-2.446,19.172l-3.21-0.644l-22.268-6.53
			c-2.713-0.796-5.643,1.072-6.549,4.169c-0.91,3.097,0.554,6.25,3.261,7.045l6.656,1.949l-0.078,0.245l-8.389-2.46
			c-3.097-0.905-6.347,0.871-7.251,3.963c-0.905,3.098,0.866,6.346,3.962,7.256l0.713,0.208c-2.378-0.063-4.67,1.566-5.455,4.221
			c-0.905,3.097,0.596,6.258,3.343,7.065l1.748,0.514c-1.881,0.321-3.656,1.986-4.354,4.376c-0.905,3.098,0.308,6.177,2.717,6.884
			l13.885,4.07c5.239,1.897,11.501,3.925,16.639,4.879c7.71,1.431,12.842,0.947,16.898,0.471c2.193-0.258,4.071-0.513,5.87-0.463
			c0.667,0.129,1.035-0.418,1.111-0.83l5.524-29.753C119.883,197.17,116.964,197.417,117.042,196.996z"/>
		<path class="st18" d="M118.254,232.362c-1.662-0.308-2.759-1.905-2.45-3.567l5.86-31.565c0.308-1.662,1.906-2.759,3.567-2.45
			l12.007,2.229c1.662,0.308,2.759,1.906,2.45,3.567l-5.86,31.565c-0.309,1.662-1.906,2.759-3.567,2.45L118.254,232.362z"/>
	</g>
	<g>
		<path class="st19" d="M117.042,196.996c0,0-0.228-0.762-0.602-2.02c-1.712-5.758-6.496-21.969-6.605-23.724
			c-0.128-2.137,2.42-16.56,2.42-16.56s-8.264-8.081-14.968,8.11c-6.716,16.195-2.446,19.172-2.446,19.172l-3.21-0.644l-22.268-6.53
			c-2.713-0.796-5.643,1.072-6.549,4.169c-0.91,3.097,0.554,6.25,3.261,7.045l6.656,1.949l-0.078,0.245l-8.389-2.46
			c-3.097-0.905-6.347,0.871-7.251,3.963c-0.905,3.098,0.866,6.346,3.962,7.256l0.713,0.208c-2.378-0.063-4.67,1.566-5.455,4.221
			c-0.905,3.097,0.596,6.258,3.343,7.065l1.748,0.514c-1.881,0.321-3.656,1.986-4.354,4.376c-0.905,3.098,0.308,6.177,2.717,6.884
			l13.885,4.07c5.239,1.897,11.501,3.925,16.639,4.879c7.71,1.431,12.842,0.947,16.898,0.471c2.193-0.258,4.071-0.513,5.87-0.463
			c0.667,0.129,1.035-0.418,1.111-0.83l5.524-29.753C119.883,197.17,116.964,197.417,117.042,196.996z"/>
		<path class="st19" d="M118.254,232.362c-1.662-0.308-2.759-1.905-2.45-3.567l5.86-31.565c0.308-1.662,1.906-2.759,3.567-2.45
			l12.007,2.229c1.662,0.308,2.759,1.906,2.45,3.567l-5.86,31.565c-0.309,1.662-1.906,2.759-3.567,2.45L118.254,232.362z"/>
	</g>
	<rect x="155.591" y="205.961" class="st31" width="185.539" height="30.539"/>
	<text transform="matrix(1 0 0 1 155.5906 222.498)" class="st1 st34 st35">LO MEJOR</text>
</g>
<g>
	<polygon points="686.74,229.751 670.734,229.751 461.225,229.751 467.891,214.186 461.225,197.376 670.734,197.376 686.74,197.376 
		681.026,214.185 	"/>
	<g>
		<g>
			<path class="st18" d="M462.399,226.926c0,0,0.54,0.583,1.43,1.548c4.073,4.416,15.507,16.863,16.377,18.391
				c1.056,1.863,5.12,15.933,5.12,15.933s10.978,3.616,9.867-13.873c-1.103-17.497-6.247-18.29-6.247-18.29l3.166-0.835
				l22.868-3.944c2.786-0.48,4.595-3.447,4.043-6.627c-0.547-3.181-3.25-5.368-6.03-4.889l-6.834,1.181l-0.038-0.254l8.615-1.485
				c3.179-0.551,5.315-3.577,4.764-6.751c-0.552-3.18-3.572-5.316-6.753-4.77l-0.732,0.128c2.163-0.991,3.503-3.463,3.039-6.192
				c-0.552-3.179-3.29-5.356-6.113-4.871l-1.796,0.308c1.548-1.117,2.407-3.393,1.981-5.846c-0.552-3.18-2.997-5.411-5.471-4.984
				l-14.259,2.46c-5.539,0.604-12.054,1.541-17.087,2.947c-7.552,2.11-11.947,4.805-15.378,7.019
				c-1.855,1.197-3.429,2.253-5.067,3.001c-0.655,0.178-0.745,0.831-0.632,1.235l8.143,29.146
				C459.772,228.021,462.284,226.514,462.399,226.926z"/>
			<path class="st18" d="M445.737,195.708c1.628-0.455,3.316,0.496,3.771,2.124l8.639,30.92c0.455,1.628-0.496,3.316-2.124,3.771
				l-11.761,3.286c-1.628,0.455-3.316-0.496-3.771-2.124l-8.639-30.92c-0.455-1.628,0.496-3.316,2.124-3.771L445.737,195.708z"/>
		</g>
		<g>
			<path class="st20" d="M462.399,226.926c0,0,0.54,0.583,1.43,1.548c4.073,4.416,15.507,16.863,16.377,18.391
				c1.056,1.863,5.12,15.933,5.12,15.933s10.978,3.616,9.867-13.873c-1.103-17.497-6.247-18.29-6.247-18.29l3.166-0.835
				l22.868-3.944c2.786-0.48,4.595-3.447,4.043-6.627c-0.547-3.181-3.25-5.368-6.03-4.889l-6.834,1.181l-0.038-0.254l8.615-1.485
				c3.179-0.551,5.315-3.577,4.764-6.751c-0.552-3.18-3.572-5.316-6.753-4.77l-0.732,0.128c2.163-0.991,3.503-3.463,3.039-6.192
				c-0.552-3.179-3.29-5.356-6.113-4.871l-1.796,0.308c1.548-1.117,2.407-3.393,1.981-5.846c-0.552-3.18-2.997-5.411-5.471-4.984
				l-14.259,2.46c-5.539,0.604-12.054,1.541-17.087,2.947c-7.552,2.11-11.947,4.805-15.378,7.019
				c-1.855,1.197-3.429,2.253-5.067,3.001c-0.655,0.178-0.745,0.831-0.632,1.235l8.143,29.146
				C459.772,228.021,462.284,226.514,462.399,226.926z"/>
			<path class="st20" d="M445.737,195.708c1.628-0.455,3.316,0.496,3.771,2.124l8.639,30.92c0.455,1.628-0.496,3.316-2.124,3.771
				l-11.761,3.286c-1.628,0.455-3.316-0.496-3.771-2.124l-8.639-30.92c-0.455-1.628,0.496-3.316,2.124-3.771L445.737,195.708z"/>
		</g>
	</g>
	<rect x="528.591" y="205.961" class="st31" width="185.539" height="30.539"/>
	<text transform="matrix(1 0 0 1 528.5906 222.498)" class="st1 st34 st35">LO PEOR</text>
</g>
<path class="st22" d="M95.669,293.059l-1.174,62.374h6.141l-1.148-61.055c-0.243-0.393-0.468-0.769-0.683-1.135
	C97.776,293.392,96.713,293.337,95.669,293.059z"/>
<path class="st22" d="M102.719,279.421c1.236-2.227,2.703-5.209,4.429-9.09c5.07-11.404,10.44-26.231,9.181-26.791
	c-1.259-0.56-8.67,13.36-13.74,24.764c-1.726,3.881-2.957,6.969-3.783,9.379c0.702,0.101,1.401,0.29,2.079,0.592
	C101.566,278.577,102.175,278.968,102.719,279.421z"/>
<path class="st22" d="M90.978,280.952c-2.4-0.851-5.584-1.806-9.697-2.867c-12.084-3.117-27.595-5.965-27.94-4.631
	c-0.344,1.334,14.609,6.344,26.693,9.462c4.113,1.061,7.362,1.766,9.875,2.182c-0.017-0.709,0.055-1.429,0.241-2.149
	C90.336,282.229,90.621,281.564,90.978,280.952z"/>
<path class="st22" d="M110.102,298.288c-2.5-3.437-4.559-6.048-6.234-7.967c-0.913,1.16-2.117,2.022-3.46,2.518
	c1.31,2.184,3.159,4.947,5.658,8.383c7.341,10.093,17.496,22.158,18.61,21.347C125.792,321.759,117.443,308.381,110.102,298.288z"/>
<path class="st0" d="M103.827,288.193c1.508-3.39-0.019-7.359-3.408-8.866c-3.39-1.507-7.359,0.019-8.866,3.408
	c-1.508,3.39,0.019,7.359,3.408,8.867S102.32,291.583,103.827,288.193z M94.534,284.061c0.775-1.743,2.817-2.528,4.561-1.753
	c1.742,0.776,2.528,2.817,1.753,4.56c-0.775,1.743-2.817,2.528-4.561,1.753C94.543,287.846,93.759,285.805,94.534,284.061z"/>
<g>
	<path class="st23" d="M56.85,318.793c-0.518,0.012-1.353,0.129-2.301,0.607c-1.532,0.759-3.183,2.422-4.339,5.367
		c-1.17,2.956-1.955,7.231-1.959,13.685c0,1.668,0.054,3.482,0.17,5.457c0.071,1.211,1.075,2.145,2.273,2.145
		c0.045,0,0.09-0.001,0.136-0.004c1.256-0.074,2.215-1.152,2.141-2.408c-0.112-1.895-0.162-3.62-0.162-5.19
		c-0.01-6.898,0.996-10.772,1.983-12.795v42.727c0,1.946,1.577,3.522,3.522,3.522c1.945,0,3.522-1.576,3.522-3.522V342.67h1.32
		v25.713c0,1.946,1.577,3.522,3.522,3.522c1.945,0,3.522-1.576,3.522-3.522V325.67c0.169,0.346,0.339,0.743,0.507,1.206
		c0.803,2.226,1.478,5.877,1.476,11.576c0,1.571-0.05,3.296-0.16,5.191c-0.074,1.256,0.886,2.334,2.142,2.408
		c0.045,0.003,0.089,0.004,0.134,0.004c1.198,0,2.202-0.935,2.274-2.147c0.114-1.975,0.167-3.788,0.168-5.456
		c-0.012-8.597-1.385-13.355-3.257-16.216c-0.936-1.42-2.03-2.331-3.042-2.836c-0.95-0.48-1.787-0.596-2.304-0.607
		c-0.046-0.003-0.092-0.007-0.138-0.007H56.993C56.945,318.786,56.898,318.791,56.85,318.793z"/>
	<circle class="st23" cx="62.496" cy="310.754" r="6.409"/>
</g>
<g>
	<path class="st23" d="M34.956,310.99c-0.313,0.007-0.817,0.078-1.39,0.367c-0.925,0.459-1.923,1.463-2.621,3.241
		c-0.706,1.786-1.181,4.367-1.183,8.266c0,1.007,0.032,2.103,0.103,3.296c0.043,0.731,0.649,1.296,1.373,1.296
		c0.027,0,0.054-0.001,0.082-0.003c0.758-0.045,1.338-0.696,1.293-1.454c-0.067-1.144-0.098-2.187-0.098-3.135
		c-0.006-4.166,0.601-6.506,1.198-7.728v25.807c0,1.175,0.953,2.127,2.127,2.127c1.175,0,2.127-0.952,2.127-2.127v-15.531h0.797
		v15.531c0,1.175,0.953,2.127,2.127,2.127c1.175,0,2.127-0.952,2.127-2.127v-25.799c0.102,0.209,0.205,0.449,0.306,0.729
		c0.485,1.344,0.893,3.549,0.891,6.992c0,0.949-0.03,1.991-0.097,3.136c-0.045,0.759,0.535,1.41,1.294,1.454
		c0.027,0.002,0.054,0.002,0.081,0.002c0.724,0,1.33-0.565,1.373-1.297c0.069-1.193,0.101-2.288,0.102-3.296
		c-0.007-5.193-0.836-8.067-1.967-9.794c-0.565-0.858-1.226-1.408-1.837-1.713c-0.574-0.29-1.079-0.36-1.392-0.367
		c-0.028-0.002-0.055-0.004-0.084-0.004h-6.647C35.013,310.985,34.984,310.988,34.956,310.99z"/>
	<circle class="st23" cx="38.366" cy="306.134" r="3.871"/>
</g>
<g>
	<path class="st23" d="M84.153,329.07c-0.369,0.008-0.965,0.092-1.64,0.433c-1.092,0.541-2.269,1.726-3.093,3.826
		c-0.834,2.108-1.394,5.155-1.396,9.756c0,1.189,0.038,2.482,0.121,3.89c0.051,0.863,0.767,1.529,1.62,1.529
		c0.032,0,0.064-0.001,0.097-0.003c0.895-0.053,1.579-0.821,1.526-1.717c-0.08-1.351-0.116-2.581-0.116-3.7
		c-0.007-4.917,0.71-7.679,1.414-9.121v30.459c0,1.387,1.124,2.51,2.51,2.51c1.387,0,2.511-1.124,2.511-2.51v-18.331h0.941v18.331
		c0,1.387,1.124,2.51,2.51,2.51c1.387,0,2.511-1.124,2.511-2.51v-30.45c0.12,0.247,0.242,0.53,0.361,0.86
		c0.572,1.587,1.054,4.189,1.052,8.252c0,1.12-0.036,2.35-0.114,3.701c-0.053,0.896,0.631,1.664,1.527,1.716
		c0.032,0.002,0.064,0.003,0.096,0.003c0.854,0,1.57-0.666,1.621-1.53c0.081-1.408,0.119-2.701,0.12-3.89
		c-0.008-6.129-0.987-9.521-2.322-11.56c-0.667-1.012-1.447-1.662-2.168-2.021c-0.677-0.342-1.274-0.425-1.643-0.433
		c-0.033-0.002-0.065-0.005-0.099-0.005h-7.845C84.22,329.065,84.186,329.069,84.153,329.07z"/>
	<circle class="st23" cx="88.177" cy="323.339" r="4.569"/>
</g>
<rect x="172.044" y="301.035" transform="matrix(1 -0.0023 0.0023 1 -0.8533 0.5993)" class="st31" width="185.699" height="154.093"/>
<text transform="matrix(1 0 0 1 171.9034 315.7655)"><tspan x="0" y="0" class="st34 st36">Más presupuesto </tspan><tspan x="0.045" y="20" class="st34 st36">para una transición </tspan><tspan x="0.09" y="40" class="st34 st36">energética justa </tspan><tspan x="0.135" y="60" class="st34 st36">pensando en las </tspan><tspan x="0.18" y="80" class="st34 st36">personas</tspan></text>
<g>
	<circle id="XMLID_42_" class="st19" cx="149.728" cy="309.988" r="15.012"/>
	<g id="XMLID_40_">
		<path id="XMLID_41_" class="st24" d="M146.531,318.29l-6.69-6.69c-0.837-0.837-0.837-2.195,0-3.032
			c0.837-0.837,2.195-0.837,3.032,0l3.674,3.674l10.004-9.896c0.842-0.833,2.199-0.825,3.032,0.016
			c0.833,0.842,0.825,2.199-0.017,3.032L146.531,318.29z"/>
	</g>
</g>
<rect x="199.991" y="566.078" transform="matrix(1 -0.0023 0.0023 1 -1.399 0.6212)" class="st31" width="148.628" height="107.09"/>
<text transform="matrix(1 0 0 1 199.9025 580.85)"><tspan x="0" y="0" class="st34 st36">Avances en </tspan><tspan x="0.046" y="20" class="st34 st36">fiscalidad verde </tspan><tspan x="0.092" y="40" class="st34 st36">como la subida </tspan><tspan x="0.137" y="60" class="st34 st36">de impuestos al </tspan><tspan x="0.182" y="80" class="st34 st36">diésel</tspan></text>
<g>
	<circle id="XMLID_48_" class="st19" cx="177.728" cy="574.988" r="15.012"/>
	<g id="XMLID_46_">
		<path id="XMLID_47_" class="st1" d="M174.531,583.29l-6.69-6.69c-0.837-0.837-0.837-2.195,0-3.032
			c0.837-0.837,2.195-0.837,3.032,0l3.674,3.674l10.004-9.896c0.842-0.833,2.199-0.825,3.032,0.016
			c0.833,0.842,0.825,2.199-0.017,3.032L174.531,583.29z"/>
	</g>
</g>
<rect x="166.029" y="837.027" transform="matrix(1 -0.0023 0.0023 1 -2.0526 0.595)" class="st31" width="192.711" height="143.948"/>
<text transform="matrix(1 0 0 1 165.8995 851.7494)"><tspan x="0" y="0" class="st34 st36">Inversión para </tspan><tspan x="0.045" y="20" class="st34 st36">mejorar el ferrocarril </tspan><tspan x="0.091" y="40" class="st34 st36">convencional y </tspan><tspan x="0.136" y="60" class="st34 st36">carreteras frente a </tspan><tspan x="0.181" y="80" class="st34 st36">nuevos proyectos</tspan></text>
<g>
	<circle id="XMLID_54_" class="st19" cx="143.728" cy="845.988" r="15.012"/>
	<g id="XMLID_52_">
		<path id="XMLID_53_" class="st1" d="M140.531,854.29l-6.69-6.69c-0.837-0.837-0.837-2.195,0-3.032
			c0.837-0.837,2.195-0.837,3.032,0l3.674,3.674l10.004-9.896c0.842-0.833,2.199-0.825,3.032,0.016
			c0.833,0.842,0.825,2.199-0.017,3.032L140.531,854.29z"/>
	</g>
</g>
<rect x="189.975" y="1074.054" transform="matrix(1 -0.0023 0.0023 1 -2.5332 0.6237)" class="st31" width="169.658" height="95.138"/>
<text transform="matrix(1 0 0 1 189.8995 1088.8021)"><tspan x="0" y="0" class="st34 st36">Aumentan los </tspan><tspan x="0.046" y="20" class="st34 st36">fondos para </tspan><tspan x="0.091" y="40" class="st34 st36">protección de la </tspan><tspan x="0.136" y="60" class="st34 st36">costa</tspan></text>
<g>
	<circle id="XMLID_60_" class="st19" cx="167.728" cy="1082.988" r="15.012"/>
	<g id="XMLID_58_">
		<path id="XMLID_59_" class="st1" d="M164.531,1091.29l-6.69-6.69c-0.837-0.837-0.837-2.195,0-3.032
			c0.837-0.837,2.195-0.837,3.032,0l3.674,3.674l10.004-9.896c0.842-0.833,2.199-0.825,3.032,0.016
			c0.833,0.842,0.825,2.199-0.017,3.032L164.531,1091.29z"/>
	</g>
</g>
<rect x="66.985" y="430.063" transform="matrix(1 -0.0023 0.0023 1 -1.091 0.3351)" class="st31" width="161.635" height="106.12"/>
<text transform="matrix(1 0 0 1 66.8976 444.8202)"><tspan x="0" y="0" class="st34 st36">Mas fondos para </tspan><tspan x="0.045" y="20" class="st34 st36">la oficina de </tspan><tspan x="0.091" y="40" class="st34 st36">Cambio Climático </tspan><tspan x="0.136" y="60" class="st34 st36">y Parques </tspan><tspan x="0.182" y="80" class="st34 st36">Nacionales</tspan></text>
<g>
	<circle id="XMLID_45_" class="st19" cx="44.728" cy="438.988" r="15.012"/>
	<g id="XMLID_43_">
		<path id="XMLID_44_" class="st1" d="M41.531,447.29l-6.69-6.69c-0.837-0.837-0.837-2.195,0-3.032c0.837-0.837,2.195-0.837,3.032,0
			l3.674,3.674l10.004-9.896c0.842-0.833,2.199-0.825,3.032,0.016c0.833,0.842,0.825,2.199-0.017,3.032L41.531,447.29z"/>
	</g>
</g>
<rect x="67.967" y="698.066" transform="matrix(1 -0.0023 0.0023 1 -1.6784 0.3347)" class="st31" width="158.672" height="90.113"/>
<text transform="matrix(1 0 0 1 67.8986 712.8265)"><tspan x="0" y="0" class="st34 st36">Más fondos para </tspan><tspan x="0.045" y="20" class="st34 st36">investigación </tspan><tspan x="0.09" y="40" class="st34 st36">medioambiental </tspan><tspan x="0.135" y="60" class="st34 st36">y energética</tspan></text>
<g>
	<circle id="XMLID_51_" class="st19" cx="45.728" cy="706.988" r="15.012"/>
	<g id="XMLID_49_">
		<path id="XMLID_50_" class="st1" d="M42.531,715.29l-6.69-6.69c-0.837-0.837-0.837-2.195,0-3.032c0.837-0.837,2.195-0.837,3.032,0
			l3.674,3.674l10.004-9.896c0.842-0.833,2.199-0.825,3.032,0.016c0.833,0.842,0.825,2.199-0.017,3.032L42.531,715.29z"/>
	</g>
</g>
<rect x="67.984" y="966.044" transform="matrix(1 -0.0023 0.0023 1 -2.3007 0.3592)" class="st31" width="179.764" height="105.104"/>
<text transform="matrix(1 0 0 1 67.8976 980.7806)"><tspan x="0" y="0" class="st34 st36">Más presupuesto </tspan><tspan x="0.046" y="20" class="st34 st36">para calidad del </tspan><tspan x="0.091" y="40" class="st34 st36">agua y depuración</tspan></text>
<g>
	<circle id="XMLID_57_" class="st19" cx="45.728" cy="974.988" r="15.012"/>
	<g id="XMLID_55_">
		<path id="XMLID_56_" class="st1" d="M42.531,983.29l-6.69-6.69c-0.837-0.837-0.837-2.195,0-3.032c0.837-0.837,2.195-0.837,3.032,0
			l3.674,3.674l10.004-9.896c0.842-0.833,2.199-0.825,3.032,0.016c0.833,0.842,0.825,2.199-0.017,3.032L42.531,983.29z"/>
	</g>
</g>
<rect x="551.97" y="301.067" transform="matrix(1 -0.0023 0.0023 1 -0.7814 1.4259)" class="st31" width="157.667" height="91.111"/>
<text transform="matrix(1 0 0 1 551.8995 315.829)"><tspan x="0" y="0" class="st34 st36">El 45% de la </tspan><tspan x="0.046" y="20" class="st34 st36">inversión real es </tspan><tspan x="0.092" y="40" class="st34 st36">para defensa</tspan></text>
<path class="st20" d="M529.89,295c-8.475,0-15.345,6.87-15.345,15.345s6.87,15.345,15.345,15.345c8.475,0,15.345-6.87,15.345-15.345
	S538.365,295,529.89,295z M537.198,314.937c0.85,0.851,0.85,2.242,0,3.093c-0.851,0.85-2.242,0.85-3.093,0l-4.215-4.215
	l-4.215,4.215c-0.85,0.85-2.242,0.85-3.093,0c-0.85-0.851-0.85-2.242,0-3.093l4.215-4.215l-4.215-4.215
	c-0.85-0.85-0.85-2.242,0-3.093c0.851-0.85,2.242-0.85,3.093,0l4.215,4.215l4.215-4.215c0.85-0.85,2.242-0.85,3.093,0
	c0.85,0.85,0.85,2.242,0,3.093l-4.215,4.215L537.198,314.937z"/>
<rect x="533.985" y="557.057" transform="matrix(1 -0.0023 0.0023 1 -1.3745 1.3961)" class="st31" width="166.637" height="104.131"/>
<text transform="matrix(1 0 0 1 533.9005 571.809)"><tspan x="0" y="0" class="st34 st36">Se sigue </tspan><tspan x="0.046" y="20" class="st34 st36">subvencionando a </tspan><tspan x="0.091" y="40" class="st34 st36">las industrias y </tspan><tspan x="0.136" y="60" class="st34 st36">energías </tspan><tspan x="0.182" y="80" class="st34 st36">contaminantes</tspan></text>
<path class="st20" d="M511.89,551c-8.475,0-15.345,6.87-15.345,15.345s6.87,15.345,15.345,15.345c8.475,0,15.345-6.87,15.345-15.345
	S520.365,551,511.89,551z M519.198,570.937c0.85,0.851,0.85,2.242,0,3.093c-0.851,0.85-2.242,0.85-3.093,0l-4.215-4.215
	l-4.215,4.215c-0.85,0.85-2.242,0.85-3.093,0c-0.85-0.851-0.85-2.242,0-3.093l4.215-4.215l-4.215-4.215
	c-0.85-0.85-0.85-2.242,0-3.093c0.851-0.85,2.242-0.85,3.093,0l4.215,4.215l4.215-4.215c0.85-0.85,2.242-0.85,3.093,0
	c0.85,0.85,0.85,2.242,0,3.093l-4.215,4.215L519.198,570.937z"/>
<rect x="557.976" y="821.084" transform="matrix(1 -0.0023 0.0023 1 -1.9628 1.4238)" class="st31" width="142.654" height="97.077"/>
<text transform="matrix(1 0 0 1 557.8995 835.8627)"><tspan x="0" y="0" class="st34 st36">Se congelan los </tspan><tspan x="0.046" y="20" class="st34 st36">fondos para </tspan><tspan x="0.091" y="40" class="st34 st36">mejorar el </tspan><tspan x="0.136" y="60" class="st34 st36">transporte y la </tspan><tspan x="0.181" y="80" class="st34 st36">movilidad</tspan></text>
<path class="st20" d="M535.89,815c-8.475,0-15.345,6.87-15.345,15.345s6.87,15.345,15.345,15.345c8.475,0,15.345-6.87,15.345-15.345
	S544.365,815,535.89,815z M543.198,834.937c0.85,0.851,0.85,2.242,0,3.093c-0.851,0.85-2.242,0.85-3.093,0l-4.215-4.215
	l-4.215,4.215c-0.85,0.85-2.242,0.85-3.093,0c-0.85-0.851-0.85-2.242,0-3.093l4.215-4.215l-4.215-4.215
	c-0.85-0.85-0.85-2.242,0-3.093c0.851-0.85,2.242-0.85,3.093,0l4.215,4.215l4.215-4.215c0.85-0.85,2.242-0.85,3.093,0
	c0.85,0.85,0.85,2.242,0,3.093l-4.215,4.215L543.198,834.937z"/>
<rect x="545.991" y="1075.056" transform="matrix(1 -0.0023 0.0023 1 -2.5522 1.4246)" class="st31" width="166.776" height="110.942"/>
<text transform="matrix(1 0 0 1 545.8986 1089.808)"><tspan x="0" y="0" class="st34 st36">La mayor parte </tspan><tspan x="0.046" y="20" class="st34 st36">del presupuesto </tspan><tspan x="0.091" y="40" class="st34 st36">de costas es para </tspan><tspan x="0.137" y="60" class="st34 st36">paseos marítimos </tspan><tspan x="0.182" y="80" class="st34 st36">y playas</tspan></text>
<path class="st20" d="M523.89,1069c-8.475,0-15.345,6.87-15.345,15.345c0,8.475,6.87,15.345,15.345,15.345
	c8.475,0,15.345-6.87,15.345-15.345C539.236,1075.87,532.365,1069,523.89,1069z M531.198,1088.937c0.85,0.851,0.85,2.242,0,3.093
	c-0.851,0.85-2.242,0.85-3.093,0l-4.215-4.215l-4.215,4.215c-0.85,0.85-2.242,0.85-3.093,0c-0.85-0.851-0.85-2.242,0-3.093
	l4.215-4.215l-4.215-4.215c-0.85-0.85-0.85-2.242,0-3.093c0.851-0.85,2.242-0.85,3.093,0l4.215,4.215l4.215-4.215
	c0.85-0.85,2.242-0.85,3.093,0c0.85,0.85,0.85,2.242,0,3.093l-4.215,4.215L531.198,1088.937z"/>
<rect x="422.013" y="396.066" transform="matrix(1 -0.0023 0.0023 1 -1.038 1.1335)" class="st31" width="158.582" height="128.113"/>
<text transform="matrix(1 0 0 1 421.9025 410.8271)"><tspan x="0" y="0" class="st34 st36">La Secretaría de </tspan><tspan x="0.045" y="20" class="st34 st36">Medio Ambiente </tspan><tspan x="0.09" y="40" class="st34 st36">pierde un 7% del </tspan><tspan x="0.135" y="60" class="st34 st36">presupuesto para </tspan><tspan x="0.181" y="80" class="st34 st36">actuaciones </tspan><tspan x="0.226" y="100" class="st34 st36">ambientales</tspan></text>
<path class="st20" d="M398.89,390c-8.475,0-15.345,6.87-15.345,15.345s6.87,15.345,15.345,15.345c8.475,0,15.345-6.87,15.345-15.345
	S407.365,390,398.89,390z M406.198,409.937c0.85,0.851,0.85,2.242,0,3.093c-0.851,0.85-2.242,0.85-3.093,0l-4.215-4.215
	l-4.215,4.215c-0.85,0.85-2.242,0.85-3.093,0c-0.85-0.851-0.85-2.242,0-3.093l4.215-4.215l-4.215-4.215
	c-0.85-0.85-0.85-2.242,0-3.093c0.851-0.85,2.242-0.85,3.093,0l4.215,4.215l4.215-4.215c0.85-0.85,2.242-0.85,3.093,0
	c0.85,0.85,0.85,2.242,0,3.093l-4.215,4.215L406.198,409.937z"/>
<rect x="423.978" y="691.036" transform="matrix(1 -0.0023 0.0023 1 -1.6696 1.1717)" class="st31" width="187.653" height="97.179"/>
<text transform="matrix(1 0 0 1 423.9005 705.7635)"><tspan x="0" y="0" class="st34 st36">Menos dinero para </tspan><tspan x="0.045" y="20" class="st34 st36">gestión de residuos </tspan><tspan x="0.092" y="40" class="st34 st36">respetando el medio </tspan><tspan x="0.137" y="60" class="st34 st36">ambiente</tspan></text>
<path class="st20" d="M400.89,685.002c-8.475,0-15.345,6.87-15.345,15.345s6.87,15.345,15.345,15.345
	c8.475,0,15.345-6.87,15.345-15.345S409.365,685.002,400.89,685.002z M408.198,704.94c0.85,0.851,0.85,2.242,0,3.093
	c-0.851,0.85-2.242,0.85-3.093,0l-4.215-4.215l-4.215,4.215c-0.85,0.85-2.242,0.85-3.093,0c-0.85-0.851-0.85-2.242,0-3.093
	l4.215-4.215l-4.215-4.215c-0.85-0.85-0.85-2.242,0-3.093c0.851-0.85,2.242-0.85,3.093,0l4.215,4.215l4.215-4.215
	c0.85-0.85,2.242-0.85,3.093,0c0.85,0.85,0.85,2.242,0,3.093l-4.215,4.215L408.198,704.94z"/>
<rect x="422.987" y="950.084" transform="matrix(1 -0.0023 0.0023 1 -2.2646 1.1191)" class="st31" width="142.633" height="106.077"/>
<text transform="matrix(1 0 0 1 422.9005 964.8627)"><tspan x="0" y="0" class="st34 st36">No se apuesta </tspan><tspan x="0.045" y="20" class="st34 st36">por el ahorro </tspan><tspan x="0.091" y="40" class="st34 st36">del agua y sus </tspan><tspan x="0.136" y="60" class="st34 st36">gestión </tspan><tspan x="0.182" y="80" class="st34 st36">sostenible</tspan></text>
<path class="st20" d="M399.89,944c-8.475,0-15.345,6.87-15.345,15.345s6.87,15.345,15.345,15.345c8.475,0,15.345-6.87,15.345-15.345
	S408.365,944,399.89,944z M407.198,963.937c0.85,0.851,0.85,2.242,0,3.093c-0.851,0.85-2.242,0.85-3.093,0l-4.215-4.215
	l-4.215,4.215c-0.85,0.85-2.242,0.85-3.093,0c-0.85-0.851-0.85-2.242,0-3.093l4.215-4.215l-4.215-4.215
	c-0.85-0.85-0.85-2.242,0-3.093c0.851-0.85,2.242-0.85,3.093,0l4.215,4.215l4.215-4.215c0.85-0.85,2.242-0.85,3.093,0
	c0.85,0.85,0.85,2.242,0,3.093l-4.215,4.215L407.198,963.937z"/>
<path class="st2" d="M255.24,421c0,0-9.5,13-14.5,16s-5,30-1,31s17-7,20-12S269.74,435,255.24,421z"/>
<g>
	<path class="st23" d="M293.928,522.626c-29.674,0-53.817-24.143-53.817-53.817c0-1.042,0.844-1.892,1.892-1.892
		s1.892,0.849,1.892,1.892c0,27.589,22.445,50.034,50.038,50.034s50.039-22.445,50.039-50.034c0-27.594-22.445-50.039-50.039-50.039
		c-7.721,0-15.119,1.708-21.996,5.082c-0.941,0.454-2.075,0.068-2.538-0.869c-0.458-0.936-0.072-2.065,0.864-2.529
		c7.398-3.629,15.36-5.468,23.661-5.468c29.674,0,53.817,24.143,53.817,53.822C347.74,498.487,323.601,522.626,293.928,522.626z"/>
</g>
<g>
	<path class="st23" d="M341.761,476.54c-0.352,0-0.705-0.101-1.004-0.29l-9.801-6.163l-16.721,2.075
		c-0.531,0.092-1.066-0.096-1.472-0.444l-13.551-11.746l-20.751,2.582c-0.637,0.111-1.284-0.169-1.699-0.68
		c-5.931-7.263,2.997-20.775,4.034-22.29c0.309-0.449,0.791-0.743,1.327-0.806l11.365-1.419l3.745-6.713
		c0.294-0.526,0.82-0.878,1.419-0.951l13.17-1.636l5.501-5.019c0.767-0.7,1.964-0.651,2.669,0.125
		c0.705,0.772,0.647,1.964-0.121,2.673l-5.95,5.424c-0.29,0.265-0.651,0.43-1.042,0.473l-12.817,1.597l-3.735,6.708
		c-0.294,0.521-0.82,0.878-1.419,0.951l-11.452,1.424c-2.369,3.716-6.515,11.886-4.3,16.244l20.423-2.538
		c0.526-0.096,1.066,0.097,1.472,0.444l13.551,11.746l16.552-2.056c0.43-0.068,0.869,0.043,1.24,0.27l9.801,6.163l2.953-0.367
		c1.042-0.135,1.979,0.608,2.109,1.646c0.13,1.033-0.608,1.979-1.646,2.109l-3.624,0.449
		C341.915,476.535,341.833,476.54,341.761,476.54z"/>
</g>
<g>
	<path class="st23" d="M295.988,503.062L295.988,503.062c-3.518,0-6.076-4.763-6.553-5.719c-0.13-0.265-0.198-0.55-0.198-0.845
		v-5.55l-9.405-5.154c-0.347-0.188-0.623-0.478-0.791-0.84l-6.182-12.856c-0.227-0.463-0.251-0.999-0.072-1.482
		c0.179-0.478,0.55-0.869,1.023-1.071l6.182-2.654c0.208-0.092,0.425-0.145,0.651-0.154l17.31-0.859
		c0.69-0.043,1.313,0.294,1.679,0.854l8.904,13.647c0.256,0.391,0.357,0.864,0.285,1.317l-1.732,11.234
		c-0.063,0.391-0.241,0.758-0.521,1.038l-7.909,8.049C297.692,502.777,296.867,503.062,295.988,503.062z M293.011,496.036
		c1.013,1.829,2.432,3.624,3.161,3.161l7.268-7.427l1.53-9.917l-7.914-12.137l-15.882,0.782l-4.054,1.742l5.062,10.53l9.854,5.4
		c0.603,0.333,0.98,0.965,0.98,1.655v6.211H293.011z"/>
</g>
<g>
	<path class="st23" d="M296.394,522.679c-0.077,0-0.159-0.005-0.236-0.019c-1.038-0.125-1.771-1.071-1.641-2.104l0.762-6.143
		l-24.573-9.584c-0.603-0.236-1.042-0.767-1.168-1.404l-3.108-16.051l-14.772-4.999l-4.7,6.191
		c-0.632,0.825-1.814,0.994-2.649,0.362c-0.83-0.632-0.994-1.819-0.362-2.649l5.521-7.268c0.492-0.651,1.342-0.912,2.109-0.647
		l17.103,5.781c0.642,0.217,1.12,0.767,1.25,1.428l3.117,16.104l24.969,9.743c0.806,0.319,1.293,1.134,1.187,1.993l-0.946,7.601
		C298.145,521.974,297.33,522.679,296.394,522.679z"/>
</g>
<g>
	<g>
		<path class="st25" d="M242.282,470.753c-0.647,0-1.269-0.333-1.626-0.922l-2.365-3.962c-3.397-5.772-3.793-15.235-3.808-15.636
			c0.28-13.141,11.196-20.611,11.659-20.92c7.465-5.651,9.024-10.877,9.044-10.926c0.193-0.68,0.748-1.202,1.443-1.342
			c0.69-0.13,1.404,0.101,1.848,0.651c9.613,11.891,9.005,22.363,8.971,22.802c0.256,16.591-16.002,25.244-16.697,25.606
			c-2.244,1.438-7.552,4.406-7.552,4.406C242.91,470.671,242.596,470.753,242.282,470.753z M238.262,450.201
			c0.005,0,0.381,8.807,3.282,13.739l1.414,2.369c1.718-0.975,4.406-2.514,5.907-3.47c0.29-0.159,15.027-8.054,14.81-22.44
			c0.01-0.227,0.41-8.242-6.273-17.851c-1.414,2.471-4.112,6.09-9.063,9.84C248.155,432.514,238.504,439.164,238.262,450.201
			L238.262,450.201z"/>
	</g>
	<g>
		<path class="st25" d="M241.853,470.522c-0.309,0-0.623-0.077-0.912-0.236c-0.912-0.507-1.245-1.655-0.738-2.572
			c4.03-7.301,6.018-13.676,6.259-20.056c0.159-4.16,5.077-14.728,5.637-15.92c0.439-0.946,1.568-1.342,2.514-0.907
			c0.946,0.449,1.351,1.568,0.907,2.514c-1.998,4.237-5.188,11.91-5.284,14.458c-0.265,6.993-2.403,13.898-6.727,21.74
			C243.165,470.165,242.519,470.522,241.853,470.522z"/>
	</g>
	<g>
		<path class="st25" d="M247.996,452.512c-0.159,0-0.323-0.024-0.483-0.063c-0.487-0.13-0.907-0.454-1.158-0.893l-4.729-8.276
			c-0.516-0.907-0.198-2.065,0.709-2.582c0.912-0.507,2.061-0.193,2.577,0.705l3.779,6.611l6.491-3.841
			c0.898-0.536,2.056-0.241,2.587,0.661c0.531,0.898,0.236,2.056-0.666,2.587l-8.141,4.821
			C248.667,452.42,248.334,452.512,247.996,452.512z"/>
	</g>
</g>
<rect x="35.356" y="567.639" transform="matrix(0.9918 -0.128 0.128 0.9918 -75.7643 16.4087)" class="st21" width="108.951" height="60.519"/>
<rect x="37.74" y="568" class="st1" width="102" height="59"/>
<g>
	<path class="st25" d="M102.742,579.769c-0.262-0.917-1.18-1.573-2.097-1.442c-0.393,0-8.519,0.917-14.155,9.568
		c-1.966-1.442-5.374-3.014-10.092-1.835c-0.786,0.131-1.442,0.786-1.442,1.704c-1.442,9.961,7.077,19.528,11.14,23.46
		c0.262,0.655,0.655,1.311,0.786,1.704c0.131,2.883,0.393,4.849,0.524,5.111c0.131,0.917,1.049,1.573,1.966,1.573
		c0.131,0,0.262,0,0.393,0c1.049-0.131,1.835-1.18,1.573-2.228c0,0-0.262-1.573-0.393-4.063c1.704-1.835,7.208-8.126,9.961-13.63
		C105.494,590.123,102.742,580.162,102.742,579.769z M78.627,589.73c3.014-0.262,4.98,0.917,6.029,1.835
		c-0.131,0.393-0.393,0.917-0.524,1.442c0,0,0-0.131-0.131-0.131c-0.655-0.917-1.835-1.048-2.752-0.524
		c-0.917,0.655-1.048,1.835-0.524,2.752c0.524,0.786,1.442,2.359,2.359,5.111c0,0,0,0,0,0.131c0,0.655,0.131,1.311,0.131,1.966
		C80.724,598.642,78.496,594.186,78.627,589.73z M97.237,597.725c-1.573,3.146-4.194,6.684-6.422,9.305
		c0.524-5.111,1.966-11.402,5.898-16.776c0.655-0.917,0.524-2.097-0.393-2.752s-2.097-0.524-2.752,0.393
		c-3.539,4.718-5.374,10.092-6.291,14.941c-0.655-3.408-0.524-7.208,1.18-10.747c3.277-6.291,7.995-8.519,10.616-9.305
		C99.728,585.667,100.121,591.958,97.237,597.725z"/>
	<path class="st25" d="M139.57,628H38.653c-1.048,0-1.966-0.917-1.966-1.966v-57.012c0-1.049,0.917-1.966,1.966-1.966H139.57
		c1.048,0,1.966,0.917,1.966,1.966v57.012C141.536,627.214,140.619,628,139.57,628z M40.619,624.068h96.986v-52.949H40.619V624.068z
		"/>
	<g>
		<path class="st26" d="M62.244,597.594c0-7.995,3.408-15.072,8.912-19.921H49.138c-1.048,0-1.966,0.917-1.966,1.966v36.042
			c0,1.049,0.917,1.966,1.966,1.966h22.018C65.651,612.666,62.244,605.588,62.244,597.594z"/>
		<path class="st26" d="M129.086,577.672h-22.018c5.505,4.98,8.912,12.058,8.912,19.921s-3.408,15.072-8.912,19.921h22.018
			c1.049,0,1.966-0.917,1.966-1.966v-36.042C131.051,578.459,130.134,577.672,129.086,577.672z"/>
	</g>
</g>
<g>
	<g>
		<g>
			<path class="st23" d="M328.126,699.618c-8.641-8.652-20.133-13.416-32.358-13.416c-12.225,0-23.717,4.764-32.358,13.416
				c-15.344,15.359-17.768,39.3-5.971,57.388l-4.394,4.396c-2.595-0.515-4.967,0.334-6.704,2.072l-24.675,24.706
				c-4.958,4.963-4.958,13.036,0,17.998c2.394,2.397,5.589,3.718,8.996,3.718s6.601-1.321,8.996-3.718l24.674-24.705
				c1.763-1.764,2.515-4.265,2.062-6.703l4.39-4.394c7.421,4.864,16.032,7.428,24.985,7.428c12.224,0,23.715-4.764,32.358-13.416
				C345.966,746.531,345.966,717.475,328.126,699.618z M295.768,771.772c-10.61,0-20.587-4.137-28.09-11.647
				c-15.492-15.507-15.492-40.737,0-56.244c7.502-7.51,17.479-11.647,28.09-11.647s20.588,4.137,28.09,11.647
				c15.492,15.507,15.492,40.737,0,56.244C316.355,767.635,306.379,771.772,295.768,771.772z M230.662,803.865
				c-1.793,0-3.472-0.692-4.728-1.95c-2.609-2.611-2.609-6.861,0-9.472l24.675-24.706c0.262-0.262,0.655-0.412,1.078-0.412h0.001
				c0.423,0,0.816,0.15,1.078,0.414l7.298,7.304c0.597,0.598,0.597,1.57,0,2.168l-24.675,24.705
				C234.134,803.173,232.454,803.865,230.662,803.865z M263.092,769.538l-4.825-4.827l2.826-2.829
				c0.755,0.879,1.53,1.719,2.317,2.506c0.786,0.786,1.625,1.564,2.507,2.322L263.092,769.538z"/>
		</g>
		<circle class="st27" cx="295.937" cy="731.796" r="34.177"/>
	</g>
	<g>
		<path class="st28" d="M291.56,710.796c0,0-21,7-13,29c0,0,7,4,8,7s0,5,0,5l16-1c0,0,2-3,6-7S324.56,711.796,291.56,710.796z"/>
		<path class="st24" d="M287.992,766.86h14.576c0,0-2.561,5.712-5.712,5.712s-7.879-1.576-7.879-3.152
			C288.977,767.845,287.992,766.86,287.992,766.86z"/>
		<path class="st29" d="M310.199,713.706c-4.586-4.072-10.502-5.948-16.665-5.263h-0.002c-9.942,1.117-17.889,9.159-18.896,19.119
			c-0.771,7.485,2.403,14.715,8.496,19.341c1.807,1.356,2.845,3.209,2.949,5.253l19.923,0.109c0.102-2.042,1.141-3.899,2.951-5.256
			c5.469-4.13,8.605-10.366,8.605-17.115C317.505,723.71,314.821,717.809,310.199,713.706z M306.476,743.849l-0.011,0.009
			c-2.373,1.834-3.883,4.252-4.317,6.878l-9.065-0.214h-3.493c-0.52-2.806-2.03-5.232-4.294-6.88
			c-4.95-3.814-7.542-9.718-6.935-15.792c0.811-8.109,7.32-14.659,15.48-15.576c5.044-0.57,9.894,0.955,13.654,4.31
			c3.75,3.345,5.9,8.121,5.9,13.119C313.497,735.32,310.975,740.476,306.476,743.849z"/>
		<path class="st29" d="M307.632,732.614c-0.107,0.531,0.011,1.096,0.323,1.548c0.301,0.434,0.753,0.722,1.42,0.819h0.214
			c0.98,0,1.767-0.635,1.96-1.594c1.245-6.679-1.448-13.545-6.702-17.087l-0.04-0.025c-0.988-0.593-2.167-0.323-2.74,0.632
			c-0.592,0.99-0.321,2.167,0.596,2.716C306.531,722.202,308.621,727.667,307.632,732.614z"/>
		<path class="st29" d="M296.202,707.246c1.145,0,1.975-0.831,1.975-1.975v-4.282c0-1.144-0.83-1.975-1.975-1.975
			c-1.144,0-1.974,0.831-1.974,1.975v4.282C294.228,706.36,295.114,707.246,296.202,707.246z"/>
		<path class="st29" d="M285.941,707.431c0.213,0.529,0.659,0.953,1.194,1.131c0.204,0.069,0.412,0.101,0.61,0.101
			c0.294,0,0.564-0.071,0.76-0.196c0.531-0.212,0.956-0.658,1.137-1.195c0.172-0.508,0.115-1.043-0.098-1.375l-1.604-3.959
			c-0.213-0.531-0.659-0.957-1.195-1.137c-0.512-0.169-1.043-0.113-1.373,0.097c-0.53,0.214-0.955,0.66-1.135,1.197
			c-0.171,0.508-0.114,1.041,0.099,1.373L285.941,707.431z"/>
		<path class="st29" d="M279.168,712.647l0.012,0.011c0.388,0.388,0.888,0.582,1.387,0.582s0.999-0.194,1.388-0.582
			c0.779-0.778,0.779-2,0.011-2.768l-3.008-3.115c-0.755-0.754-2.023-0.755-2.779,0c-0.377,0.38-0.585,0.872-0.585,1.389
			s0.208,1.011,0.574,1.377L279.168,712.647z"/>
		<path class="st29" d="M311.409,714.018c0.459,0,0.918-0.139,1.292-0.42l3.094-3.082c0.378-0.378,0.587-0.87,0.588-1.387
			c0-0.519-0.208-1.013-0.586-1.391c-0.378-0.378-0.871-0.586-1.388-0.586h-0.001c-0.518,0-1.011,0.208-1.389,0.586l-2.997,2.997
			c-0.378,0.378-0.587,0.87-0.588,1.387c0,0.519,0.208,1.013,0.683,1.476C310.491,713.879,310.95,714.018,311.409,714.018z
			 M313.658,708.377L313.658,708.377L313.658,708.377L313.658,708.377z"/>
		<path class="st29" d="M303.682,709.002l0.003,0.002c0.252,0.099,0.51,0.146,0.763,0.146c0.779,0,1.506-0.447,1.801-1.184
			l1.607-3.964c0.201-0.501,0.196-1.07-0.015-1.56c-0.199-0.466-0.563-0.823-1.022-1.006c-0.499-0.203-1.068-0.194-1.558,0.012
			c-0.467,0.199-0.825,0.563-1.009,1.022l-1.607,3.964C302.237,707.456,302.701,708.606,303.682,709.002z"/>
		<path class="st30" d="M308.77,757.066c0-1.22-0.72-2.294-1.356-3.253l-1.206-1.627c0,0-17.622,0-18.977,0
			s-2.725,1.491-2.725,1.491c-0.813,0.813-1.356,1.898-1.356,3.253c0,1.22,0.407,2.304,1.22,2.982
			c-0.813,0.813-1.22,1.898-1.22,2.982c0,2.304,1.762,4.202,4.067,4.338c1.084,3.931,4.609,6.642,8.675,6.642
			c4.067,0,7.591-2.711,8.811-6.507c2.304-0.135,4.067-2.033,4.067-4.338c0-1.22-0.407-2.304-1.22-2.982
			C308.363,759.235,308.77,758.151,308.77,757.066z M295.892,771.164c-2.576,0-4.88-1.491-5.964-3.66h11.929
			C300.772,769.673,298.468,771.164,295.892,771.164z M304.432,764.793h-17.08c-0.949,0-1.627-0.813-1.627-1.627
			c0-0.949,0.813-1.627,1.627-1.627h16.944c0.949,0,1.627,0.813,1.627,1.627C306.059,763.98,305.245,764.793,304.432,764.793z
			 M304.432,758.557h-17.08c-0.949,0-1.627-0.813-1.627-1.627c0-0.949,0.813-1.627,1.627-1.627h17.08
			c0.949,0,1.627,0.813,1.627,1.627C306.059,757.88,305.245,758.557,304.432,758.557z"/>
		<g>
			<path class="st2" d="M295.868,727.842c0,0,3.154,7.282,5.232,9.267c2.078,1.985-0.856,14.965-2.888,15.011
				c-2.032,0.046-7.412-5.212-8.311-7.942C289.003,741.449,287.376,732.997,295.868,727.842z"/>
			<g>
				<g>
					<path class="st25" d="M296.277,752.953c0,0-2.229-2.004-3.152-2.939c-0.295-0.249-7.17-6.176-5.245-14.124
						c0.031-0.215,0.877-5.315,6.79-9.987c0.273-0.216,0.642-0.25,0.959-0.112c0.319,0.143,0.529,0.454,0.548,0.802
						c0.004,0.025,0.185,2.707,3.16,6.235c0.189,0.199,4.625,4.976,3.332,11.324c-0.05,0.191-1.269,4.697-3.529,7.103l-1.567,1.648
						c-0.236,0.244-0.571,0.337-0.882,0.266C296.54,753.134,296.398,753.061,296.277,752.953z M300.857,743.724
						c1.083-5.332-2.834-9.577-2.909-9.658c-1.973-2.341-2.876-4.374-3.288-5.715c-4.257,3.893-4.936,7.79-4.956,7.9
						c-1.668,6.892,4.56,12.289,4.681,12.397c0.618,0.622,1.743,1.655,2.463,2.31l0.937-0.985
						C299.717,747.917,300.855,743.724,300.857,743.724L300.857,743.724z"/>
				</g>
				<g>
					<path class="st25" d="M296.923,753.103c0.148,0.034,0.308,0.031,0.464-0.015c0.494-0.145,0.778-0.66,0.634-1.156
						c-1.144-3.948-1.407-7.229-0.83-10.322c0.375-2.017-0.84-7.632-0.98-8.266c-0.108-0.502-0.608-0.815-1.11-0.709
						c-0.503,0.113-0.82,0.607-0.709,1.11c0.5,2.254,1.2,6.289,0.969,7.525c-0.632,3.39-0.355,6.943,0.872,11.182
						C296.331,752.789,296.603,753.031,296.923,753.103z"/>
				</g>
				<g>
					<path class="st25" d="M295.927,743.778c0.077,0.017,0.158,0.023,0.239,0.022c0.248-0.01,0.485-0.12,0.654-0.303l3.173-3.465
						c0.347-0.38,0.32-0.971-0.06-1.318c-0.383-0.343-0.97-0.317-1.315,0.059l-2.535,2.768l-2.703-2.552
						c-0.373-0.355-0.962-0.339-1.315,0.037c-0.353,0.374-0.337,0.963,0.039,1.316l3.39,3.202
						C295.614,743.661,295.764,743.741,295.927,743.778z"/>
				</g>
			</g>
		</g>
	</g>
</g>
<g>
	<polygon class="st22" points="100.75,867 100.749,867 80.752,922.996 	"/>
	<path class="st22" d="M101.431,865.119c0,0-0.001,0-0.001,0c-1.037-0.376-2.186,0.164-2.562,1.205L78.869,922.32
		c-0.375,1.035,0.164,2.184,1.212,2.564c0.214,0.074,0.436,0.113,0.668,0.115c0.839,0,1.595-0.53,1.882-1.324l19.999-55.996
		C103.005,866.645,102.467,865.496,101.431,865.119z M100.75,867l-19.998,55.996L100.75,867L100.75,867z"/>
	<path class="st22" d="M142.62,922.32l-19.991-55.974c-0.167-0.507-0.522-0.919-1-1.159c-0.477-0.239-1.02-0.282-1.528-0.113
		c-1.047,0.347-1.617,1.48-1.244,2.602l20.001,56.004c0.285,0.789,1.041,1.32,1.88,1.32c0.231,0,0.458-0.04,0.681-0.119
		C142.457,924.504,142.995,923.355,142.62,922.32z"/>
	<polygon class="st22" points="110.74,875 110.739,875 110.74,885 	"/>
	<path class="st22" d="M110.74,873c-1.103,0-2,0.897-2,2v10c0,1.103,0.897,2,2,2s2-0.897,2-2v-10
		C112.74,873.897,111.843,873,110.74,873z M110.74,875v10l-0.001-10H110.74z"/>
	<polygon class="st22" points="110.74,893 110.739,893 110.74,903 	"/>
	<path class="st22" d="M110.74,891c-1.103,0-2,0.897-2,2v10c0,1.103,0.897,2,2,2s2-0.897,2-2v-10
		C112.74,891.897,111.843,891,110.74,891z M110.74,893v10l-0.001-10H110.74z"/>
	<polygon class="st22" points="110.74,911 110.739,911 110.74,921 	"/>
	<path class="st22" d="M110.74,909c-1.103,0-2,0.897-2,2v10c0,1.103,0.897,2,2,2s2-0.897,2-2v-10
		C112.74,909.897,111.843,909,110.74,909z M110.74,911v10l-0.001-10H110.74z"/>
</g>
<path class="st23" d="M81.523,819.563h-42.59c-4.534,0-8.211,3.687-8.211,8.215v42.599c0,4.527,3.676,8.206,8.211,8.206h3.754
	l-7.752,7.141h5.869l7.755-7.141H71.9l7.752,7.141h5.874l-7.752-7.141h3.749c4.545,0,8.217-3.678,8.217-8.206v-42.599
	C89.74,823.251,86.068,819.563,81.523,819.563z M42.63,871.22c-2.705,0-4.899-2.192-4.899-4.897c0-2.706,2.193-4.899,4.899-4.899
	c2.705,0,4.898,2.192,4.898,4.899C47.528,869.028,45.335,871.22,42.63,871.22z M77.831,871.22c-2.705,0-4.898-2.192-4.898-4.897
	c0-2.706,2.193-4.899,4.898-4.899c2.706,0,4.899,2.192,4.899,4.899C82.73,869.028,80.537,871.22,77.831,871.22z M82.73,843.991
	c0,3.453-2.796,6.267-6.258,6.267H43.994c-3.461,0-6.262-2.815-6.262-6.267v-11.153c0-3.451,2.801-6.249,6.262-6.249h32.478
	c3.462,0,6.258,2.798,6.258,6.249V843.991z"/>
<g>
	<path class="st37" d="M288.918,988.952c-0.594-0.06-1.17,0.196-1.567,0.671c-4.462,5.443-9.583,12.648-9.583,20.107
		c0,7.267,4.934,13.178,10.999,13.178s10.998-5.911,10.998-13.178c0-7.459-5.122-14.664-9.587-20.111
		C289.849,989.229,289.402,988.992,288.918,988.952z M295.964,1009.73c0,4.984-3.229,9.039-7.198,9.039s-7.199-4.055-7.199-9.039
		c0-4.968,3.824-11.058,7.199-15.466C292.141,998.673,295.964,1004.764,295.964,1009.73z"/>
	<path class="st37" d="M312.561,997.797c6.064,0,10.999-5.911,10.999-13.178c0-7.459-5.122-14.664-9.583-20.107l-0.003-0.004
		c-0.328-0.391-0.776-0.628-1.255-0.667c-0.589-0.051-1.172,0.195-1.571,0.671c-4.462,5.443-9.583,12.648-9.583,20.107
		C301.563,991.886,306.497,997.797,312.561,997.797z M305.363,984.619c0-4.967,3.823-11.058,7.198-15.466
		c3.375,4.408,7.199,10.498,7.199,15.466c0,4.984-3.229,9.039-7.199,9.039S305.363,989.604,305.363,984.619z"/>
	<path class="st37" d="M261.518,1008.536c-0.273-0.328-0.648-0.525-1.048-0.558c-0.487-0.042-0.981,0.162-1.314,0.561
		c-3.467,4.229-7.447,9.829-7.447,15.643c0,5.689,3.872,10.318,8.63,10.318s8.63-4.629,8.63-10.318
		c0-5.813-3.98-11.413-7.447-15.643L261.518,1008.536z M260.338,1031.069c-3.012,0-5.462-3.09-5.462-6.888
		c0-3.772,2.881-8.401,5.462-11.79c2.581,3.389,5.462,8.018,5.462,11.79C265.8,1027.979,263.35,1031.069,260.338,1031.069z"/>
	<path class="st37" d="M315.098,1002.076c-0.28-0.333-0.663-0.536-1.074-0.57c-0.499-0.043-1.003,0.168-1.344,0.574
		c-3.589,4.378-7.708,10.175-7.708,16.188c0,5.883,4.001,10.668,8.919,10.668s8.919-4.785,8.919-10.668
		c0-6.013-4.119-11.81-7.708-16.188L315.098,1002.076z M319.565,1018.269c0,3.942-2.545,7.15-5.674,7.15
		c-3.128,0-5.674-3.208-5.674-7.15c0-3.917,2.997-8.726,5.674-12.24C316.568,1009.543,319.565,1014.352,319.565,1018.269z"/>
</g>
<g>
	<circle class="st22" cx="409.212" cy="317.5" r="4.5"/>
	<circle class="st22" cx="425.24" cy="317.5" r="4.5"/>
	<circle class="st22" cx="441.24" cy="317.5" r="4.5"/>
	<circle class="st22" cx="456.24" cy="317.5" r="4.5"/>
	<g>
		<path class="st23" d="M412.623,277.583h28.858c0.457,0,0.869,0.187,1.167,0.488l6.149,6.149l-1.16,1.16l1.16-1.16
			c0.32,0.32,0.48,0.74,0.48,1.16v7.407c0,0.457-0.187,0.87-0.488,1.167l-6.149,6.149l0,0c-0.32,0.32-0.74,0.48-1.16,0.48v0h-28.858
			c-0.457,0-0.87-0.187-1.167-0.488l-6.149-6.149l0,0c-0.32-0.32-0.481-0.74-0.481-1.16v-7.407c0-0.457,0.187-0.87,0.488-1.167
			l6.149-6.149l1.16,1.16l-1.16-1.16C411.783,277.743,412.203,277.583,412.623,277.583z M440.801,280.864h-27.499l-5.195,5.195
			v6.048l5.195,5.195h27.499l5.195-5.195v-6.048L440.801,280.864z"/>
		<path class="st23" d="M437.35,298.943c0-0.906-0.735-1.641-1.641-1.641c-0.906,0-1.641,0.735-1.641,1.641v6.887
			c0,0.906,0.735,1.641,1.641,1.641c0.906,0,1.641-0.735,1.641-1.641V298.943z M416.754,305.829c0,0.906,0.735,1.641,1.641,1.641
			c0.906,0,1.641-0.735,1.641-1.641v-6.887c0-0.906-0.735-1.641-1.641-1.641c-0.906,0-1.641,0.735-1.641,1.641V305.829z"/>
		<path class="st23" d="M447.637,283.739c-0.906,0-1.641,0.735-1.641,1.641c0,0.906,0.735,1.641,1.641,1.641h17.381v4.197h-17.381
			c-0.906,0-1.641,0.735-1.641,1.641c0,0.906,0.735,1.641,1.641,1.641h19.022c0.906,0,1.641-0.735,1.641-1.641v-7.478
			c0-0.906-0.735-1.641-1.641-1.641H447.637z"/>
		<path class="st23" d="M466.659,290.015c-0.906,0-1.641,0.735-1.641,1.641c0,0.906,0.735,1.641,1.641,1.641h27.413
			c0.906,0,1.641-0.735,1.641-1.641v-5.075c0-0.906-0.735-1.641-1.641-1.641h-27.413c-0.906,0-1.641,0.735-1.641,1.641
			c0,0.906,0.735,1.641,1.641,1.641h25.772v1.793H466.659z"/>
		<path class="st23" d="M397.31,304.189h30.262h41.004c3.322,0,5.218,1.471,6.05,3.787c0.489,1.361,0.545,2.982,0.266,4.722
			c-0.259,1.616-0.81,3.364-1.567,5.108c-2.763,6.369-8.485,12.833-12.896,12.833h-54.974c-4.009,0-9.973-6.557-12.887-12.959
			c-0.798-1.754-1.387-3.5-1.667-5.101c-0.306-1.748-0.257-3.373,0.26-4.734C392.013,305.604,393.936,304.189,397.31,304.189z
			 M427.572,307.47H397.31c-1.775,0-2.729,0.592-3.085,1.529c-0.295,0.777-0.303,1.821-0.093,3.017
			c0.235,1.343,0.734,2.818,1.411,4.306c2.482,5.452,7.108,11.036,9.913,11.036h54.974c3.124,0,7.561-5.464,9.896-10.847
			c0.65-1.498,1.121-2.98,1.336-4.326c0.196-1.222,0.179-2.295-0.112-3.107c-0.353-0.983-1.277-1.608-2.974-1.608
			C468.576,307.47,427.572,307.47,427.572,307.47z"/>
		<path class="st23" d="M409.094,310.759c1.837,0,3.501,0.745,4.705,1.949c1.204,1.204,1.949,2.868,1.949,4.705
			c0,1.837-0.745,3.501-1.949,4.705c-1.204,1.204-2.868,1.949-4.705,1.949c-1.837,0-3.501-0.745-4.705-1.949
			c-1.204-1.204-1.949-2.868-1.949-4.705c0-1.837,0.745-3.501,1.949-4.705C405.593,311.504,407.257,310.759,409.094,310.759z
			 M411.48,315.029c-0.61-0.61-1.454-0.988-2.385-0.988c-0.932,0-1.775,0.378-2.385,0.988c-0.61,0.61-0.988,1.454-0.988,2.385
			c0,0.932,0.378,1.775,0.988,2.385c0.61,0.61,1.454,0.988,2.385,0.988c0.932,0,1.775-0.378,2.385-0.988
			c0.61-0.61,0.988-1.454,0.988-2.385C412.467,316.482,412.09,315.639,411.48,315.029z"/>
		<path class="st23" d="M424.957,310.759c1.837,0,3.501,0.745,4.705,1.949c1.204,1.204,1.949,2.868,1.949,4.705
			c0,1.837-0.745,3.501-1.949,4.705c-1.204,1.204-2.868,1.949-4.705,1.949s-3.501-0.745-4.705-1.949
			c-1.204-1.204-1.949-2.868-1.949-4.705c0-1.837,0.745-3.501,1.949-4.705C421.455,311.504,423.119,310.759,424.957,310.759z
			 M427.342,315.029c-0.61-0.61-1.454-0.988-2.385-0.988c-0.932,0-1.775,0.378-2.385,0.988c-0.61,0.61-0.988,1.454-0.988,2.385
			c0,0.932,0.378,1.775,0.988,2.385c0.61,0.61,1.454,0.988,2.385,0.988c0.932,0,1.775-0.378,2.385-0.988
			c0.61-0.61,0.988-1.454,0.988-2.385C428.33,316.482,427.952,315.639,427.342,315.029z"/>
		<path class="st23" d="M440.819,310.759c1.837,0,3.501,0.745,4.705,1.949c1.204,1.204,1.949,2.868,1.949,4.705
			c0,1.837-0.745,3.501-1.949,4.705c-1.204,1.204-2.868,1.949-4.705,1.949c-1.837,0-3.501-0.745-4.705-1.949
			c-1.204-1.204-1.949-2.868-1.949-4.705c0-1.837,0.745-3.501,1.949-4.705C437.318,311.504,438.982,310.759,440.819,310.759z
			 M443.204,315.029c-0.61-0.61-1.454-0.988-2.385-0.988c-0.932,0-1.775,0.378-2.385,0.988c-0.61,0.61-0.988,1.454-0.988,2.385
			c0,0.932,0.378,1.775,0.988,2.385c0.61,0.61,1.454,0.988,2.385,0.988c0.932,0,1.775-0.378,2.385-0.988
			c0.61-0.61,0.988-1.454,0.988-2.385C444.192,316.482,443.815,315.639,443.204,315.029z"/>
		<path class="st23" d="M456.682,310.759c1.837,0,3.501,0.745,4.705,1.949c1.204,1.204,1.949,2.868,1.949,4.705
			c0,1.837-0.745,3.501-1.949,4.705c-1.204,1.204-2.868,1.949-4.705,1.949c-1.837,0-3.501-0.745-4.705-1.949
			c-1.204-1.204-1.949-2.868-1.949-4.705c0-1.837,0.745-3.501,1.949-4.705C453.181,311.504,454.844,310.759,456.682,310.759z
			 M459.067,315.029c-0.61-0.61-1.454-0.988-2.385-0.988c-0.932,0-1.775,0.378-2.385,0.988c-0.61,0.61-0.988,1.454-0.988,2.385
			c0,0.932,0.378,1.775,0.988,2.385c0.61,0.61,1.454,0.988,2.385,0.988c0.932,0,1.775-0.378,2.385-0.988
			c0.61-0.61,0.988-1.454,0.988-2.385C460.055,316.482,459.677,315.639,459.067,315.029z"/>
		<path class="st23" d="M433.052,267.384c0-0.906-0.735-1.641-1.641-1.641c-0.906,0-1.641,0.735-1.641,1.641v11.84
			c0,0.906,0.735,1.641,1.641,1.641c0.906,0,1.641-0.735,1.641-1.641V267.384z"/>
		<path class="st23" d="M424.333,262.183c0-0.906-0.735-1.641-1.641-1.641c-0.906,0-1.641,0.735-1.641,1.641v17.04
			c0,0.906,0.735,1.641,1.641,1.641c0.906,0,1.641-0.735,1.641-1.641V262.183z"/>
	</g>
</g>
<g>
	<rect x="608.74" y="432" class="st2" width="21" height="63"/>
	<rect x="655.238" y="430.511" class="st2" width="24.267" height="62.4"/>
	<path class="st23" d="M692.226,493.296h-7.702v-59.703h7.702c0.012,0,0.027-0.001,0.038,0c3.684,0,5.735-5.422,1.63-7.344
		l-47.817-28.701c-1.22-0.731-2.743-0.731-3.962,0l-48.13,28.889c-3.348,2.008-1.924,7.154,1.981,7.154h7.701v59.704h-7.702
		c-2.126,0-3.85,1.725-3.85,3.853s1.725,3.851,3.85,3.851h96.261c2.127,0,3.852-1.724,3.852-3.851S694.354,493.296,692.226,493.296z
		 M676.823,493.296H660.14v-59.703h16.684v59.703H676.823z M652.438,433.593v59.704h-16.686v-59.704H652.438z M644.096,405.344
		l34.23,20.545h-68.459L644.096,405.344z M611.367,433.593h16.684v59.704h-16.684V433.593z"/>
	<path class="st2" d="M647.716,413.407c0,0-6.742,9.226-10.29,11.355s-3.548,21.29-0.71,22c2.839,0.71,12.064-4.968,14.193-8.516
		C653.039,434.697,658.006,423.342,647.716,413.407z"/>
	<g>
		<g>
			<path class="st25" d="M638.521,448.715c-0.459,0-0.901-0.236-1.154-0.654l-1.678-2.812c-2.411-4.096-2.692-10.812-2.702-11.096
				c0.199-9.325,7.945-14.627,8.274-14.846c5.298-4.01,6.404-7.719,6.418-7.753c0.137-0.483,0.531-0.853,1.024-0.952
				c0.49-0.092,0.997,0.072,1.312,0.462c6.822,8.438,6.39,15.87,6.366,16.182c0.182,11.774-11.356,17.915-11.849,18.171
				c-1.592,1.021-5.36,3.127-5.36,3.127C638.966,448.657,638.743,448.715,638.521,448.715z M635.668,434.129
				c0.003,0,0.271,6.25,2.329,9.75l1.003,1.682c1.219-0.692,3.127-1.784,4.192-2.462c0.205-0.113,10.664-5.716,10.51-15.925
				c0.007-0.161,0.291-5.849-4.452-12.668c-1.003,1.753-2.918,4.322-6.432,6.983C642.689,421.578,635.839,426.297,635.668,434.129
				L635.668,434.129z"/>
		</g>
		<g>
			<path class="st25" d="M638.216,448.551c-0.219,0-0.442-0.055-0.647-0.168c-0.647-0.36-0.884-1.175-0.524-1.825
				c2.86-5.182,4.271-9.706,4.442-14.233c0.113-2.952,3.603-10.452,4-11.298c0.312-0.671,1.113-0.952,1.784-0.644
				c0.671,0.318,0.959,1.113,0.644,1.784c-1.418,3.007-3.682,8.452-3.75,10.26c-0.188,4.962-1.706,9.863-4.774,15.428
				C639.147,448.297,638.688,448.551,638.216,448.551z"/>
		</g>
		<g>
			<path class="st25" d="M642.576,435.77c-0.113,0-0.229-0.017-0.342-0.045c-0.346-0.092-0.644-0.322-0.822-0.634l-3.356-5.873
				c-0.366-0.644-0.14-1.466,0.503-1.832c0.647-0.36,1.462-0.137,1.829,0.5l2.682,4.692l4.606-2.726
				c0.637-0.38,1.459-0.171,1.836,0.469c0.377,0.637,0.168,1.459-0.473,1.836l-5.777,3.421
				C643.052,435.705,642.815,435.77,642.576,435.77z"/>
		</g>
	</g>
</g>
<g>
	<path class="st23" d="M468.514,583.748c0.076-0.568-0.096-1.144-0.483-1.572c-0.381-0.432-0.916-0.676-1.5-0.676h-37.213
		c-0.576,0-1.12,0.248-1.5,0.676c-0.376,0.432-0.552,1.004-0.484,1.576c0.04,0.312,3.716,31.477-17.892,58.5
		c-0.48,0.6-0.576,1.424-0.244,2.116c0.332,0.696,1.036,1.132,1.804,1.132h73.836c0.765,0,1.468-0.436,1.804-1.132
		c0.328-0.692,0.24-1.517-0.248-2.116C464.846,615.28,468.478,584.064,468.514,583.748z"/>
	<path class="st23" d="M450.51,576.084c-0.776,0.78-0.776,2.048,0,2.828c0.399,0.392,0.908,0.584,1.416,0.584
		c0.509,0,1.024-0.196,1.416-0.584c2.528-2.524,1.261-5.768,0.34-8.14c-1.012-2.604-1.348-3.852-0.34-4.86
		c0.776-0.78,0.776-2.048,0-2.828c-0.776-0.78-2.052-0.78-2.828,0c-2.956,2.96-1.571,6.532-0.56,9.14
		C450.87,574.576,451.098,575.508,450.51,576.084z"/>
	<path class="st23" d="M442.51,576.084c-0.776,0.78-0.776,2.048,0,2.828c0.396,0.392,0.908,0.584,1.416,0.584
		c0.508,0,1.024-0.196,1.416-0.584c2.528-2.524,1.26-5.768,0.34-8.14c-1.012-2.604-1.348-3.852-0.34-4.86
		c0.78-0.78,0.78-2.048,0-2.828c-0.776-0.78-2.048-0.78-2.828,0c-2.956,2.96-1.572,6.532-0.56,9.14
		C442.87,574.576,443.094,575.508,442.51,576.084z"/>
	<path class="st38" d="M505.485,642.252c-15.244-19.064-12.68-42.276-12.651-42.508c0.075-0.568-0.112-1.136-0.492-1.568
		c-0.38-0.424-0.916-0.672-1.496-0.672h-18.128c1.124,11.084,4.928,27.4,16.809,42.252c1.295,1.616,1.596,3.805,0.916,5.752h13.476
		c0.764,0,1.464-0.436,1.8-1.132C506.062,643.676,505.962,642.852,505.485,642.252L505.485,642.252z"/>
	<path class="st39" d="M423.138,597.5H405.21c-0.576,0-1.116,0.248-1.496,0.672c-0.384,0.428-0.56,1-0.492,1.568
		c0.028,0.232,2.584,23.451-12.652,42.508c-0.48,0.596-0.576,1.42-0.244,2.111c0.332,0.702,1.032,1.133,1.804,1.133h13.28
		c-0.684-1.94-0.388-4.128,0.912-5.752C418.218,624.876,422.018,608.58,423.138,597.5z"/>
</g>
<g>
	<path class="st22" d="M650.395,762.291h-18.324c-3.246,0-4.921-2.199-5.445-3.141c-0.524-0.942-1.675-3.455,0-6.283l5.445-9.529
		c0.314-0.628,1.152-0.838,1.78-0.524l2.827,1.571c1.047,0.524,2.199-0.314,1.885-1.466l-4.084-14.974
		c-0.209-0.733-0.942-1.047-1.571-0.942l-14.974,4.084c-1.152,0.314-1.257,1.78-0.314,2.408l2.827,1.571
		c0.628,0.314,0.838,1.152,0.524,1.78l-5.445,9.529c-3.456,6.073-3.456,13.194,0,19.267c3.455,6.073,9.738,9.633,16.649,9.633
		h18.534c3.665,0,6.597-3.037,6.492-6.806C656.887,764.909,653.955,762.291,650.395,762.291z"/>
	<path class="st40" d="M705.892,746.27l-8.796-15.393c-1.78-3.141-5.759-4.188-8.796-2.408c-3.141,1.78-4.188,5.759-2.408,8.796
		l8.9,15.393c1.675,2.827,0.524,5.34,0,6.283s-2.199,3.141-5.445,3.141h-11.832c-0.733,0-1.257-0.628-1.257-1.257v-3.246
		c0-1.152-1.361-1.78-2.199-0.942l-11.099,11.204c-0.524,0.524-0.524,1.361,0,1.78l10.995,10.995
		c0.838,0.838,2.199,0.209,2.199-0.942v-3.246c0-0.733,0.628-1.257,1.257-1.257h11.728c6.911,0,13.194-3.56,16.649-9.633
		C709.348,759.568,709.348,752.343,705.892,746.27z"/>
	<path class="st0" d="M666.102,703.338l5.654,9.843c0.314,0.628,0.105,1.361-0.419,1.78l-2.827,1.675
		c-1.047,0.628-0.838,2.094,0.314,2.408l15.078,3.979c0.733,0.209,1.361-0.209,1.571-0.942l3.979-15.183
		c0.314-1.152-0.942-1.99-1.885-1.466l-2.827,1.675c-0.628,0.314-1.361,0.105-1.78-0.419l-5.654-9.843
		c-3.455-5.969-9.738-9.633-16.649-9.633c-6.911,0-13.194,3.56-16.649,9.633l-9.005,15.707c-1.78,3.141-0.733,7.016,2.408,8.796
		c1.047,0.628,2.094,0.838,3.246,0.838c2.199,0,4.398-1.152,5.654-3.246l9.005-15.707c1.675-2.827,4.398-3.141,5.445-3.141
		C661.809,700.092,664.531,700.511,666.102,703.338z"/>
</g>
<g>
	<g>
		<path class="st41" d="M491.934,1160.606c-1.168-0.651-2.218-1.407-3.125-2.253c-2.691-2.232-6.391-5.297-13.514-5.235
			c-7.124,0.061-10.748,3.221-13.411,5.466c-2.298,1.98-3.426,2.848-5.886,2.869c-2.46,0.021-3.558-0.795-5.924-2.768
			c-2.691-2.232-6.39-5.297-13.514-5.235s-10.759,3.221-13.411,5.466c-2.298,1.98-3.426,2.848-5.875,2.869
			c-2.449,0.021-3.435-0.706-5.924-2.768c-1.855-1.72-4.18-3.136-6.826-4.157c-2.491-0.881-5.495-0.109-6.709,1.724
			c-1.214,1.833-0.178,4.034,2.313,4.915l0,0c1.418,0.633,2.663,1.453,3.672,2.419c2.713,2.264,6.413,5.321,13.526,5.26
			c7.113-0.061,10.771-3.18,13.423-5.425c2.298-1.98,3.426-2.848,5.875-2.869c2.449-0.021,3.58,0.794,5.935,2.768
			c2.691,2.232,6.39,5.297,13.514,5.235s10.759-3.18,13.423-5.466c2.298-1.98,3.426-2.848,5.886-2.869
			c2.46-0.021,3.58,0.795,5.912,2.768c1.492,1.342,3.233,2.523,5.173,3.51c2.318,1.108,5.431,0.622,6.954-1.085
			c1.522-1.707,0.877-3.99-1.441-5.098L491.934,1160.606z"/>
		<path class="st41" d="M400.015,1148.428c1.418,0.632,2.663,1.453,3.672,2.42c2.691,2.232,6.379,5.297,13.503,5.236
			s10.793-3.156,13.445-5.401c2.298-1.98,3.426-2.848,5.875-2.869c2.449-0.021,3.58,0.795,5.935,2.768
			c2.691,2.232,6.391,5.297,13.514,5.235c7.124-0.061,10.759-3.18,13.423-5.466c2.298-1.98,3.426-2.848,5.886-2.869
			s3.58,0.794,5.912,2.768c1.492,1.342,3.233,2.523,5.173,3.51c2.318,1.108,5.431,0.622,6.954-1.085
			c1.522-1.707,0.877-3.99-1.441-5.098c-1.187-0.661-2.253-1.431-3.17-2.293c-2.691-2.232-6.39-5.297-13.514-5.235
			s-10.748,3.221-13.411,5.466c-2.298,1.98-3.426,2.848-5.886,2.869c-2.46,0.021-3.558-0.795-5.924-2.768
			c-2.691-2.232-6.391-5.297-13.514-5.235c-7.124,0.061-10.759,3.221-13.411,5.466c-2.298,1.98-3.426,2.848-5.875,2.869
			c-2.449,0.021-3.435-0.706-5.924-2.768c-1.855-1.72-4.18-3.136-6.826-4.157c-2.491-0.881-5.495-0.109-6.709,1.724
			C396.488,1145.346,397.524,1147.547,400.015,1148.428z"/>
	</g>
	<g>
		<path d="M457.037,1122.645l-6.691-16.119l-3.538,6.486l4.855,11.542c0.569,1.674,2.234,2.604,3.718,2.076
			C456.865,1126.103,457.606,1124.319,457.037,1122.645z"/>
		<g>
			<circle cx="443.445" cy="1074.926" r="5.907"/>
			<path d="M451.977,1095.795l3.35,4.05c0.898,1.097,2.519,1.253,3.608,0.344l0,0c1.082-0.902,1.229-2.511,0.326-3.593l-7.285-8.742
				"/>
			<path d="M450.665,1097.899v-9.845c0-2.9-2.351-5.251-5.251-5.251h-0.864c-1.948,0-3.795,0.865-5.042,2.362l-9.482,11.379
				c-0.782,0.939-0.853,2.323-0.084,3.272c1.057,1.305,2.97,1.258,3.976,0.029l4.176-5.063l4.842-5.908
				c0.23-0.28,0.643-0.321,0.924-0.092c0.28,0.23,0.321,0.643,0.092,0.924l-2.3,2.806l1.138,11.951l-8.598,17.562
				c-0.999,1.458-0.767,3.377,0.521,4.284c1.287,0.907,3.14,0.461,4.14-0.997l10.39-19.651
				C453.358,1104.122,452.13,1099.364,450.665,1097.899z"/>
			<circle cx="443.445" cy="1074.926" r="5.907"/>
			<path d="M451.977,1095.795l3.35,4.05c0.898,1.097,2.519,1.253,3.608,0.344l0,0c1.082-0.902,1.229-2.511,0.326-3.593l-7.285-8.742
				"/>
			<path d="M450.665,1097.899v-9.845c0-2.9-2.351-5.251-5.251-5.251h-0.864c-1.948,0-3.795,0.865-5.042,2.362l-9.482,11.379
				c-0.782,0.939-0.853,2.323-0.084,3.272c1.057,1.305,2.97,1.258,3.976,0.029l4.176-5.063l4.842-5.908
				c0.23-0.28,0.643-0.321,0.924-0.092c0.28,0.23,0.321,0.643,0.092,0.924l-2.3,2.806l1.138,11.951l-8.598,17.562
				c-0.999,1.458-0.767,3.377,0.521,4.284c1.287,0.907,3.14,0.461,4.14-0.997l10.39-19.651
				C453.358,1104.122,452.13,1099.364,450.665,1097.899z"/>
		</g>
	</g>
	<line class="st42" x1="389.854" y1="1134.869" x2="501.854" y2="1134.869"/>
</g>
<g>
	<path class="st23" d="M448.391,796.924c-24.708,0-45.011,18.771-47.693,42.904c0.383,1.149,0.958,2.107,1.724,3.256
		c1.532,2.49,3.831,4.98,6.512,7.278c-0.192-1.724-0.383-3.448-0.383-4.98c0-22.218,17.813-40.223,39.84-40.223
		c3.256,0,6.321,0.383,9.385,1.149l4.022-1.532c1.724-0.575,3.448-0.192,4.788,1.149c0.958,1.149,1.341,2.682,1.149,4.022
		c0.766,0.192,1.724,0.383,2.49,0.766c4.405,1.341,8.811,3.065,13.024,5.171c1.724,0.958,3.448,1.915,5.363,3.065
		C479.803,805.734,465.054,796.924,448.391,796.924z M493.785,842.318c-1.724-2.107-4.022-4.022-6.704-5.938
		c0.575,2.873,0.958,5.938,0.958,9.002c0,22.218-17.813,40.223-39.84,40.223c-4.788,0-9.577-0.958-13.791-2.49l-4.788,1.341
		c-0.383,0.192-0.766,0.192-1.341,0.192c-1.341,0-2.49-0.575-3.448-1.724c-0.958-1.149-1.341-2.682-0.766-4.022
		c-0.958-0.383-1.915-0.766-2.873-1.149c-4.214-1.915-8.236-4.214-12.067-6.895c-0.958-0.766-2.107-1.532-3.065-2.298
		c8.236,14.94,23.942,25.091,42.138,25.091c26.24,0,47.692-21.452,48.076-47.693C495.7,844.808,494.934,843.467,493.785,842.318z"/>
	<path class="st29" d="M505.66,856.108c-0.766,2.298-2.107,4.405-3.639,5.938s-3.065,2.873-4.98,3.831
		c0.958-2.298,1.724-4.788,2.49-7.278c1.915-2.873,2.49-6.129,1.915-9.194c0-0.575-0.192-0.958-0.383-1.341
		c-0.383-1.149-0.766-2.49-1.341-3.639c-0.766-1.532-1.915-3.065-3.065-4.597c-2.49-2.873-5.363-5.363-8.619-7.47
		c-1.532-0.958-3.256-1.915-4.98-2.873c-1.341-0.766-2.681-1.341-4.214-1.915c-0.383-0.192-0.766-0.383-1.149-0.383
		c-5.555-2.107-11.301-3.448-17.047-3.831l0.383,3.448c0,0.766-0.766,1.149-1.341,0.766l-14.365-11.684
		c-0.575-0.383-0.383-1.149,0.192-1.532l10.343-3.831l7.087-2.682c0.766-0.192,1.341,0.383,1.149,1.149l-1.341,3.256
		c2.107,0.383,4.405,0.958,6.512,1.532c4.214,1.341,8.428,2.873,12.258,4.98c1.915,0.958,3.831,2.107,5.746,3.256
		c1.915,1.149,3.639,2.49,5.363,3.831c2.49,2.107,4.98,4.405,7.087,6.895c0.766,0.958,1.532,1.915,2.107,2.873
		c1.341,1.915,2.298,4.022,3.256,6.129c0.766,2.107,1.341,4.597,1.532,6.895C506.809,851.512,506.426,854.002,505.66,856.108z"/>
	<path class="st29" d="M446.475,875.645l-9.96,3.065l-7.853,2.298c-0.766,0.192-1.341-0.575-0.958-1.149l1.532-2.873
		c-2.107-0.766-4.214-1.532-6.321-2.49c-4.022-1.915-7.853-4.022-11.492-6.512c-1.915-1.341-3.639-2.682-5.363-4.022
		c-1.724-1.532-3.256-2.873-4.788-4.597c-1.915-2.107-3.639-4.214-5.171-6.512c-0.958-1.341-1.724-2.873-2.49-4.405
		c-0.958-2.107-1.915-4.214-2.298-6.512c-0.575-2.298-0.766-4.597-0.575-7.087c0.192-2.49,0.766-4.788,1.915-6.895
		c1.149-2.107,2.682-4.022,4.405-5.363c1.724-1.341,3.639-2.49,5.555-3.256c-1.149,2.107-2.298,4.405-3.256,6.704
		c-2.298,2.49-3.448,5.746-3.448,9.194c0,0.766,0.192,1.724,0.192,2.49c0.192,0.958,0.383,1.724,0.766,2.682
		c0.575,1.724,1.532,3.448,2.49,4.98c1.915,3.065,4.597,5.938,7.47,8.428c1.532,1.341,3.065,2.49,4.597,3.448
		c1.532,1.149,3.256,2.107,4.98,3.065c0,0,0,0,0.192,0c4.98,2.681,10.343,4.788,15.706,5.938v-3.831c0-0.192,0-0.383,0.192-0.383
		c0.192-0.383,0.958-0.575,1.341-0.192l0.575,0.575l13.024,12.258C447.433,874.687,447.241,875.454,446.475,875.645z"/>
	<path class="st23" d="M465.621,841.113h-0.419c-0.593-2.931-1.221-5.862-1.745-8.724c0.377-0.251,0.478-0.761,0.227-1.137
		c-0.118-0.176-0.299-0.3-0.506-0.346c-1.564-0.294-3.156-0.405-4.746-0.331c-1.117,0-1.117,1.745,0,1.745
		c1.102-0.044,2.205,0.009,3.298,0.157c-0.009,0.064-0.009,0.128,0,0.192l0.68,3.298c-7.677-0.384-15.424,0-23.101,0.105
		l-1.937-4.362c1.155,0.192,2.32,0.314,3.49,0.366c0.482,0,0.872-0.391,0.872-0.872s-0.391-0.872-0.872-0.872
		c-2.652,0-5.234-0.785-7.869-0.96c-1.134,0-1.117,1.745,0,1.745c0.785,0,1.57,0.157,2.373,0.279
		c0.785,1.849,1.553,3.699,2.321,5.548c-1.047,1.745-2.146,3.49-3.298,5.234c-1.477-0.61-3.06-0.924-4.659-0.925
		c-5.242,0.055-9.446,4.349-9.391,9.591c0.001,0.066,0.002,0.131,0.004,0.197c0,4.502,2.495,8.584,7.119,9.387
		c6.072,1.047,11.812-1.745,12.388-8.113h1.169c0.345,1.93,2.113,3.273,4.065,3.088c0.473-0.019,0.939-0.119,1.378-0.297
		c0.192,0.314,0.401,0.628,0.611,0.925l-0.332,0.105c-1.064,0.332-0.611,2.024,0.471,1.745l2.914-0.907
		c1.082-0.332,0.611-2.024-0.454-1.745l-0.872,0.262l-0.942-1.431c0.63-0.926,0.92-2.042,0.82-3.158
		c-0.026-0.431-0.096-0.857-0.209-1.274c4.92-3.49,9.422-7.223,13.958-11.097c0.261-0.193,0.355-0.539,0.227-0.837l0,0l0.785,3.786
		c-4.342,1.016-7.356,4.966-7.188,9.422c-0.362,4.486,2.689,8.534,7.101,9.422c6.281,1.099,12.213-1.954,12.44-8.724
		C476.02,845.143,472.024,841.165,465.621,841.113z M438.525,838.845c1.233,2.966,2.501,5.915,3.804,8.846
		c-0.738,0.792-1.197,1.802-1.309,2.879h-1.099c0.018-3.027-1.44-5.872-3.908-7.625
		C436.832,841.601,437.687,840.223,438.525,838.845z M438.106,850.587c-2.478,0-4.973,0.087-7.468,0
		c1.466-2.041,2.931-4.1,4.344-6.194C436.966,845.829,438.13,848.138,438.106,850.587z M426.869,858.526
		c-3.104-1.125-5.065-4.196-4.781-7.485c-0.184-4.284,3.141-7.906,7.425-8.089c0.072-0.003,0.145-0.005,0.217-0.006
		c1.261,0.002,2.512,0.22,3.699,0.646c-1.64,2.425-3.332,4.798-5.042,7.154l-0.105,0.157l0,0l0,0l0,0
		c-0.212,0.345-0.103,0.796,0.242,1.008c0.023,0.014,0.048,0.027,0.073,0.039c0.139,0.113,0.31,0.18,0.489,0.192
		c3.018,0.192,6.054,0.105,9.09,0C437.53,857.688,431.894,860.009,426.869,858.526z M445.521,850.517c-0.646-0.89-2.164,0-1.5,0.89
		c0.663,0.89,0.96,1.448,1.431,2.181c-0.127,0.018-0.257,0.018-0.384,0c-1.169,0-2.059-0.297-2.355-1.535
		c-0.453-1.456,0.231-3.023,1.605-3.682c2.146-0.715,3.193,2.233,2.46,3.996C446.376,851.791,445.975,851.145,445.521,850.517z
		 M444.509,846.644c-0.202,0.034-0.401,0.086-0.593,0.157c-1.326-2.984-2.6-5.985-3.856-9.003c6.979,0,13.958-0.366,20.798-0.14
		c-4.186,3.671-8.553,7.13-13.086,10.364C447.016,847.004,445.766,846.476,444.509,846.644z M462.864,858.421
		c-3.152-1.097-5.157-4.195-4.868-7.52c-0.193-3.665,2.258-6.946,5.828-7.799c0.558,2.792,1.064,5.566,1.431,8.375
		c0.157,1.099,1.902,1.117,1.745,0c-0.384-2.896-0.907-5.775-1.466-8.724h0.087c5.479,0,8.724,3.298,8.427,8.724
		c-0.227,5.932-6.054,8.497-11.271,6.944H462.864z"/>
</g>
<g>
	<path class="st0" d="M625.789,1025.714l-0.077-29.44l38.199-0.1l-0.007-2.728c-0.024-9.041-7.372-16.352-16.414-16.328
		l-21.828,0.057l-0.067-25.757l28.685-7.06l-1.433-5.453l-44.282,11.03l0.001,0.355l-3.381,0.718
		c-8.822,1.932-15.085,9.78-15.012,18.811l0.146,55.988c-3.408,2.319-5.442,6.178-5.43,10.301l0.01,3.929l46.384-0.121l-0.01-3.956
		C631.255,1031.846,629.201,1028.01,625.789,1025.714z M647.505,982.574c4.974-0.009,9.325,3.345,10.581,8.158l-32.387,0.085
		l-0.021-8.185L647.505,982.574z M606.509,956.406l13.635-2.928l0.041,15.525l-24.556,0.064
		C595.948,962.861,600.422,957.656,606.509,956.406z M595.77,1023.637l-0.128-49.112l24.556-0.064l0.128,49.112L595.77,1023.637z
		 M590.506,1034.565c0.705-3.184,3.519-5.456,6.78-5.475l21.528-0.056c3.261,0.002,6.087,2.259,6.808,5.439L590.506,1034.565z"/>
	<path class="st25" d="M656.853,1010.081l-1.97-2.068l-1.959,2.079c-1.823,1.915-7.754,8.533-7.742,13.144
		c0.014,5.387,4.393,9.743,9.78,9.729s9.743-4.393,9.729-9.78C664.651,1018.546,658.686,1011.986,656.853,1010.081z
		 M654.934,1027.493c-2.37,0.006-4.301-1.902-4.322-4.272c0.877-2.67,2.344-5.107,4.292-7.133c1.951,2.016,3.422,4.446,4.302,7.11
		C659.198,1025.558,657.294,1027.472,654.934,1027.493z"/>
	
		<rect x="647.554" y="998.927" transform="matrix(1 -0.0026 0.0026 1 -2.6124 1.7116)" class="st22" width="13.642" height="5.457"/>
</g>
<path class="st0" d="M119.759,335.872l-0.934,31.531l-20.344-0.219l-0.024,2.203l30.694,0.33l0.024-2.203l-7.395-0.08l-0.253-31.451
	C120.923,336.09,120.319,336.047,119.759,335.872z"/>
<path class="st0" d="M120.736,328.445c-0.274-1.202-0.705-2.743-1.338-4.701c-1.857-5.74-4.711-12.808-5.344-12.603
	c-0.635,0.205,1.192,7.606,3.049,13.345c0.633,1.958,1.187,3.461,1.668,4.594c0.284-0.19,0.596-0.347,0.937-0.457
	C120.049,328.513,120.394,328.458,120.736,328.445z"/>
<path class="st0" d="M124.237,334.017c1.177,0.363,2.729,0.761,4.741,1.191c5.899,1.263,13.447,2.325,13.586,1.674
	c0.139-0.651-7.182-2.77-13.082-4.033c-2.013-0.43-3.59-0.703-4.813-0.852C124.714,332.708,124.56,333.406,124.237,334.017z"/>
<path class="st22" d="M121.877,335.331c1.706-0.551,2.641-2.382,2.089-4.089c-0.551-1.706-2.382-2.641-4.088-2.089
	c-1.706,0.552-2.641,2.382-2.089,4.088C118.34,334.947,120.171,335.883,121.877,335.331z M119.289,332.756
	c-0.283-0.878,0.197-1.819,1.075-2.103c0.878-0.283,1.819,0.198,2.103,1.075c0.283,0.877-0.197,1.819-1.075,2.102
	C120.515,334.115,119.573,333.634,119.289,332.756z"/>
<g>
	<path class="st29" d="M55.933,1092.087c5.14-0.044,9.286-4.262,9.242-9.402c-0.044-5.14-4.262-9.286-9.402-9.242
		s-9.286,4.262-9.242,9.402C46.575,1087.984,50.793,1092.131,55.933,1092.087z M55.793,1075.765c3.86-0.033,7.027,3.081,7.06,6.94
		c0.033,3.859-3.081,7.027-6.94,7.06s-7.027-3.081-7.06-6.94C48.82,1078.964,51.933,1075.798,55.793,1075.765z"/>
	<path class="st29" d="M56.902,1069.645l-0.03-3.483c-0.005-0.641-0.53-1.157-1.171-1.151s-1.157,0.53-1.151,1.171l0.03,3.483
		c0.005,0.641,0.53,1.156,1.171,1.151C56.392,1070.81,56.907,1070.286,56.902,1069.645z"/>
	<path class="st29" d="M50.429,1071.996c0.158-0.001,0.318-0.035,0.471-0.105c0.583-0.266,0.841-0.955,0.576-1.538l-1.444-3.17
		c-0.266-0.584-0.953-0.841-1.538-0.575c-0.583,0.266-0.841,0.955-0.576,1.537l1.444,3.17
		C49.559,1071.747,49.985,1072,50.429,1071.996z"/>
	<path class="st29" d="M44.196,1070.898c-0.481-0.424-1.214-0.38-1.639,0.1c-0.425,0.48-0.38,1.213,0.1,1.639l2.608,2.308
		c0.223,0.198,0.502,0.294,0.778,0.292c0.318-0.003,0.633-0.135,0.861-0.392c0.425-0.48,0.38-1.213-0.1-1.639L44.196,1070.898z"/>
	<path class="st29" d="M45.556,1088.828c-0.326-0.553-1.037-0.739-1.59-0.411l-3.001,1.767c-0.552,0.325-0.737,1.037-0.411,1.59
		c0.219,0.371,0.61,0.575,1.012,0.572c0.196-0.002,0.395-0.053,0.578-0.161l3.001-1.767
		C45.697,1090.093,45.881,1089.381,45.556,1088.828z"/>
	<path class="st29" d="M46.225,1097.433c0.36-0.003,0.711-0.172,0.936-0.486l2.023-2.835c0.373-0.522,0.252-1.247-0.27-1.62
		c-0.522-0.373-1.247-0.251-1.62,0.27l-2.023,2.835c-0.373,0.522-0.252,1.247,0.27,1.62
		C45.748,1097.365,45.988,1097.435,46.225,1097.433z"/>
	<path class="st29" d="M52.099,1095.38l-0.695,3.414c-0.128,0.629,0.278,1.241,0.906,1.369c0.081,0.017,0.163,0.024,0.243,0.023
		c0.536-0.005,1.015-0.383,1.126-0.929l0.695-3.414c0.128-0.629-0.278-1.241-0.906-1.369
		C52.84,1094.345,52.228,1094.752,52.099,1095.38z"/>
	<path class="st29" d="M58.438,1094.432c-0.626,0.139-1.021,0.759-0.882,1.385l0.754,3.401c0.121,0.545,0.606,0.914,1.142,0.91
		c0.08-0.001,0.161-0.01,0.242-0.028c0.626-0.139,1.021-0.759,0.882-1.385l-0.754-3.401
		C59.683,1094.688,59.065,1094.288,58.438,1094.432z"/>
	<path class="st29" d="M64.583,1092.615c-0.382-0.515-1.108-0.624-1.624-0.243c-0.516,0.382-0.624,1.108-0.243,1.624l2.072,2.8
		c0.23,0.31,0.585,0.473,0.945,0.47c0.237-0.002,0.475-0.076,0.68-0.228c0.516-0.382,0.624-1.108,0.243-1.624L64.583,1092.615z"/>
	<path class="st29" d="M70.303,1092.099c0.402-0.003,0.79-0.215,1.002-0.589c0.316-0.559,0.119-1.267-0.439-1.582l-3.031-1.716
		c-0.56-0.317-1.267-0.12-1.582,0.438c-0.316,0.559-0.119,1.267,0.439,1.582l3.031,1.716
		C69.907,1092.053,70.107,1092.101,70.303,1092.099z"/>
	<path class="st29" d="M72.382,1085.519c0.586-0.005,1.086-0.453,1.144-1.05c0.062-0.638-0.406-1.206-1.044-1.267l-3.466-0.334
		c-0.64-0.06-1.206,0.406-1.267,1.044c-0.061,0.638,0.406,1.206,1.044,1.267l3.466,0.334
		C72.301,1085.517,72.341,1085.519,72.382,1085.519z"/>
	<path class="st29" d="M71.222,1076.402l-3.303,1.105c-0.608,0.204-0.935,0.861-0.733,1.469c0.163,0.489,0.621,0.797,1.111,0.793
		c0.118-0.001,0.24-0.021,0.358-0.06l3.303-1.105c0.608-0.204,0.935-0.861,0.733-1.469
		C72.488,1076.527,71.832,1076.199,71.222,1076.402z"/>
	<path class="st29" d="M67.305,1070.7l-2.568,2.352c-0.473,0.434-0.506,1.168-0.072,1.64c0.231,0.253,0.549,0.38,0.867,0.377
		c0.276-0.002,0.554-0.104,0.773-0.305l2.568-2.352c0.473-0.434,0.506-1.168,0.072-1.64
		C68.514,1070.299,67.779,1070.267,67.305,1070.7z"/>
	<path class="st29" d="M61.092,1071.904c0.445-0.004,0.866-0.264,1.055-0.699l1.389-3.194c0.256-0.587-0.013-1.272-0.602-1.527
		c-0.589-0.255-1.271,0.013-1.527,0.602l-1.389,3.194c-0.256,0.587,0.013,1.272,0.602,1.527
		C60.774,1071.873,60.934,1071.906,61.092,1071.904z"/>
	<path class="st23" d="M36.768,1105.623c0.032,0.639,0.559,1.12,1.219,1.099c0.267-0.016,27.565-1.249,47.145,11.985
		c19.606,13.251,41.299,13.411,43.456,13.393c0.067-0.001,0.116-0.001,0.145-0.001c0.641-0.011,1.151-0.542,1.139-1.182
		c-0.011-0.641-0.539-1.13-1.182-1.139c-0.213-0.017-22.645,0.263-42.257-12.993c-1.623-1.097-3.295-2.088-4.989-3.002
		c5.264-3.8,24.344-16.348,46.98-16.542c0.641-0.005,1.157-0.53,1.151-1.171c-0.005-0.641-0.53-1.157-1.171-1.151
		c-24.882,0.213-45.546,14.877-49.267,17.68c-18.914-9.21-40.256-8.248-41.267-8.193
		C37.227,1104.437,36.736,1104.983,36.768,1105.623z"/>
	<g>
		<path class="st25" d="M129.82,1157.737c-1.168-0.651-2.218-1.407-3.125-2.253c-2.691-2.232-6.39-5.297-13.514-5.235
			c-7.124,0.061-10.748,3.221-13.411,5.466c-2.298,1.98-3.426,2.848-5.886,2.869c-2.46,0.021-3.558-0.795-5.924-2.768
			c-2.691-2.232-6.39-5.297-13.514-5.235c-7.124,0.061-10.759,3.221-13.411,5.466c-2.298,1.98-3.426,2.848-5.875,2.869
			s-3.435-0.706-5.924-2.768c-1.855-1.72-4.18-3.136-6.826-4.157c-2.491-0.881-5.495-0.109-6.709,1.724
			c-1.214,1.833-0.178,4.034,2.313,4.915l0,0c1.418,0.633,2.663,1.453,3.672,2.419c2.713,2.264,6.413,5.321,13.526,5.26
			s10.771-3.18,13.423-5.425c2.298-1.98,3.426-2.848,5.875-2.869s3.58,0.794,5.935,2.768c2.691,2.232,6.39,5.297,13.514,5.235
			s10.759-3.18,13.423-5.466c2.298-1.98,3.426-2.848,5.886-2.869c2.46-0.021,3.58,0.795,5.912,2.768
			c1.492,1.342,3.233,2.523,5.173,3.51c2.318,1.108,5.431,0.622,6.954-1.085c1.522-1.707,0.877-3.99-1.441-5.098L129.82,1157.737z"
			/>
		<path class="st25" d="M37.901,1145.559c1.418,0.632,2.663,1.453,3.672,2.42c2.691,2.232,6.379,5.297,13.503,5.236
			s10.793-3.156,13.445-5.401c2.298-1.98,3.426-2.848,5.875-2.869s3.58,0.795,5.935,2.768c2.691,2.232,6.39,5.297,13.514,5.235
			s10.759-3.18,13.423-5.466c2.298-1.98,3.426-2.848,5.886-2.869s3.58,0.794,5.912,2.768c1.492,1.342,3.233,2.523,5.173,3.51
			c2.318,1.108,5.431,0.622,6.954-1.085c1.522-1.707,0.877-3.99-1.441-5.098c-1.187-0.661-2.253-1.431-3.17-2.293
			c-2.691-2.232-6.39-5.297-13.514-5.235c-7.124,0.061-10.748,3.221-13.411,5.466c-2.298,1.98-3.426,2.848-5.886,2.869
			c-2.46,0.021-3.558-0.795-5.924-2.768c-2.691-2.232-6.39-5.297-13.514-5.235c-7.124,0.061-10.759,3.221-13.411,5.466
			c-2.298,1.98-3.426,2.848-5.875,2.869s-3.435-0.706-5.924-2.768c-1.855-1.72-4.18-3.136-6.826-4.157
			c-2.491-0.881-5.495-0.109-6.709,1.724C34.374,1142.477,35.41,1144.678,37.901,1145.559z"/>
		<path class="st25" d="M129.603,1132.412c-1.168-0.651-2.218-1.407-3.125-2.253c-2.691-2.232-6.39-5.297-13.514-5.235
			s-10.748,3.221-13.411,5.466c-2.298,1.98-3.426,2.848-5.886,2.869c-2.46,0.021-3.558-0.795-5.924-2.768
			c-2.691-2.232-6.39-5.297-13.514-5.235s-10.759,3.221-13.411,5.466c-2.298,1.98-3.426,2.848-5.875,2.869s-3.435-0.706-5.924-2.768
			c-1.855-1.72-4.18-3.136-6.826-4.157c-2.491-0.881-5.495-0.109-6.709,1.724c-1.214,1.833-0.178,4.034,2.313,4.915
			c1.418,0.633,2.663,1.453,3.672,2.42c2.713,2.264,6.413,5.321,13.526,5.26c7.113-0.061,10.771-3.181,13.423-5.425
			c2.298-1.98,3.426-2.848,5.875-2.869c2.449-0.021,3.58,0.795,5.935,2.768c2.691,2.232,6.39,5.297,13.514,5.235
			c7.124-0.061,10.759-3.18,13.423-5.466c2.298-1.98,3.426-2.848,5.886-2.869c2.46-0.021,3.58,0.794,5.912,2.768
			c1.492,1.342,3.233,2.523,5.173,3.51c2.318,1.108,5.431,0.622,6.954-1.085c1.522-1.707,0.877-3.99-1.441-5.098L129.603,1132.412z"
			/>
	</g>
	<path class="st29" d="M38.92,1077.424c-0.192,0.611,0.147,1.263,0.758,1.457l3.322,1.048c0.12,0.037,0.241,0.055,0.359,0.054
		c0.49-0.004,0.942-0.32,1.097-0.812c0.192-0.611-0.147-1.263-0.758-1.456l-3.322-1.048
		C39.763,1076.474,39.114,1076.812,38.92,1077.424z"/>
	<path class="st29" d="M38.212,1084.771c0.068,0.596,0.575,1.035,1.162,1.03c0.041,0,0.081-0.003,0.123-0.007l3.46-0.393
		c0.637-0.073,1.095-0.648,1.022-1.285c-0.073-0.637-0.646-1.088-1.285-1.022l-3.46,0.393
		C38.598,1083.559,38.14,1084.135,38.212,1084.771z"/>
</g>
</svg>
